<?xml version="1.0" encoding="utf-8"?>
<!-- Generator: Adobe Illustrator 24.2.3, SVG Export Plug-In . SVG Version: 6.00 Build 0)  -->
<svg version="1.1" id="Layer_1" xmlns="http://www.w3.org/2000/svg" xmlns:xlink="http://www.w3.org/1999/xlink" x="0px" y="0px"
	 viewBox="0 0 248.5 30.7" style="enable-background:new 0 0 248.5 30.7;" xml:space="preserve">
<style type="text/css">
	.st0{fill:#800F34;}
	.st1{fill:#790D28;}
	.st2{fill:#C85C6F;}
	.st3{fill:#C12F4A;}
	.st4{fill:#E42647;}
	.st5{fill:#DA2336;}
	.st6{fill:#87516A;}
	.st7{fill:#C0566A;}
	.st8{fill:#E95668;}
	.st9{fill:#DF2449;}
	.st10{fill:#EE736F;}
	.st11{fill:#F2AC81;}
	.st12{fill:#F29874;}
	.st13{fill:#B42038;}
	.st14{fill:#DE1D47;}
	.st15{fill:#EC7278;}
	.st16{fill:#A1516B;}
	.st17{fill:#F2A389;}
	.st18{fill:#F5BA95;}
	.st19{fill:#F3A689;}
	.st20{fill:#F3BA8C;}
	.st21{fill:#F3B576;}
	.st22{fill:#F3C29A;}
	.st23{fill:#E0A490;}
	.st24{fill:#9B2729;}
	.st25{fill:#B92432;}
	.st26{fill:#7E272A;}
	.st27{fill:#8A242B;}
	.st28{fill:#DF453E;}
	.st29{fill:#CB3E43;}
	.st30{fill:#E53C3C;}
	.st31{fill:#CF4163;}
	.st32{fill:#EA6F76;}
	.st33{fill:#E23833;}
	.st34{fill:#94242C;}
	.st35{fill:#E24233;}
	.st36{fill:#DD302C;}
	.st37{fill:#C8262E;}
	.st38{fill:#D53431;}
	.st39{fill:#F15D23;}
	.st40{fill:#E54730;}
	.st41{fill:#DC3B32;}
	.st42{fill:#F96D1A;}
	.st43{fill:#EE5827;}
	.st44{fill:#FF7814;}
	.st45{fill:#F36C12;}
	.st46{fill:#E1590E;}
	.st47{fill:#E46410;}
	.st48{fill:#F19117;}
	.st49{fill:#E66A11;}
	.st50{fill:#EE8616;}
	.st51{fill:#EA7A14;}
	.st52{fill:#F29618;}
	.st53{fill:#F5A11A;}
	.st54{fill:#E87E13;}
	.st55{fill:#FAB21D;}
	.st56{fill:#F8C320;}
	.st57{fill:#F4BC1C;}
	.st58{fill:#470A2C;}
	.st59{fill:#25072D;}
	.st60{fill:#A42330;}
	.st61{fill:#FFA4A4;stroke:#000000;stroke-width:0.5;stroke-miterlimit:10;}
	.st62{fill:#F36220;}
	.st63{fill:#ED6510;}
	.st64{fill:#391137;}
	.st65{fill:#3D1138;}
	.st66{fill:#520B35;}
	.st67{fill:#969696;}
	.st68{fill:#4F4F4F;}
</style>
<g>
	<path class="st0" d="M124.7,24.6L124.7,24.6c0,0-0.1,0.1-0.1,0.2l-3.3-2.4l2.8-1.5L124.7,24.6z"/>
	<path class="st0" d="M124.6,24.9L124.6,24.9l-3.3-2.4l2.8-1.5l0.6,3.7l0,0C124.7,24.7,124.7,24.7,124.6,24.9L124.6,24.9z
		 M121.4,22.5l3.2,2.3c0-0.1,0.1-0.1,0.1-0.2l-0.6-3.6L121.4,22.5z"/>
	<g>
		<polygon class="st1" points="121.3,22.5 120.7,20.5 120.8,20.4 124.1,21 		"/>
		<path class="st1" d="M121.3,22.5l-0.6-2l0.1-0.2l3.3,0.6L121.3,22.5z M120.7,20.5l0.6,1.9l2.7-1.5l-3.2-0.6L120.7,20.5z"/>
	</g>
	<polygon class="st2" points="120.8,20.4 121,20 124.2,17.8 124.1,21 	"/>
	<path class="st2" d="M124.1,21l-3.3-0.6L121,20l3.1-2.3L124.1,21z M120.9,20.3l3.2,0.6l0.1-3.1l-3.1,2.2L120.9,20.3z"/>
	<path class="st3" d="M126.5,21.8l-1.7,2.8l0,0l-0.6-3.7L126.5,21.8z"/>
	<path class="st3" d="M124.7,24.7l-0.6-3.8l2.4,0.9l0,0L124.7,24.7C124.8,24.6,124.8,24.6,124.7,24.7L124.7,24.7z M124.1,21l0.6,3.6
		l1.7-2.7L124.1,21z"/>
	<polygon class="st4" points="126.7,21.5 126.7,21.5 126.5,21.8 124.1,21 125.9,19.3 	"/>
	<path class="st5" d="M126.5,21.9L126.5,21.9l-2.4-0.9l0,0l1.8-1.7l0.8,2.3L126.5,21.9z M124.1,20.9l2.3,0.9l0.2-0.3l-0.8-2.2
		L124.1,20.9z"/>
	<polygon class="st6" points="124.2,17.8 121,20 121.3,19.7 122.9,17.1 122.9,17.1 	"/>
	<path class="st6" d="M121,20.1l1.9-3l0,0l1.3,0.7L121,20.1z M122.9,17.1l-1.7,2.8l3-2.2L122.9,17.1z"/>
	<polygon class="st7" points="124.2,17.8 125.9,19.3 124.1,21 	"/>
	<path class="st7" d="M124.1,21l0.1-3.2l1.8,1.5l0,0L124.1,21z M124.2,17.8l-0.1,3.1l1.7-1.6L124.2,17.8z"/>
	<polygon class="st5" points="127.8,19.6 126.7,21.5 125.9,19.3 	"/>
	<path class="st5" d="M126.7,21.6l-0.8-2.3l2,0.4l0,0l0,0L126.7,21.6z M125.9,19.3l0.8,2.2l1.1-1.8L125.9,19.3z"/>
	<polygon class="st8" points="125.9,19.3 124.2,17.8 127.2,14.5 129,16.7 	"/>
	<path class="st8" d="M125.9,19.3l-1.7-1.5l0,0l3.1-3.3l1.8,2.3l0,0L125.9,19.3z M124.2,17.8l1.7,1.5l3.1-2.5l-1.7-2.2L124.2,17.8z"
		/>
	<polygon class="st9" points="125.9,19.3 127.8,19.6 128.6,18.5 129,16.7 	"/>
	<path class="st9" d="M127.8,19.7l-2-0.4l3.2-2.6l-0.5,1.8L127.8,19.7z M125.9,19.3l1.9,0.4l0.7-1.1l0.4-1.7L125.9,19.3z"/>
	<polygon class="st10" points="129,16.7 129.4,19.9 128.6,18.5 	"/>
	<path class="st10" d="M129.4,20l-0.9-1.5l0,0l0.5-1.9L129.4,20z M128.6,18.5l0.8,1.3l-0.4-3L128.6,18.5z"/>
	<polygon class="st11" points="129,16.7 129.7,14.1 127.2,14.5 	"/>
	<path class="st11" d="M129,16.8l-1.8-2.3l2.5-0.4L129,16.8z M127.3,14.5l1.7,2.2l0.6-2.6L127.3,14.5z"/>
	<polygon class="st12" points="129,16.7 129.7,14.1 131.9,14.7 	"/>
	<path class="st12" d="M129,16.8l0.7-2.7l2.3,0.6L129,16.8z M129.7,14.1l-0.6,2.6l2.8-2L129.7,14.1z"/>
	<polygon class="st10" points="131.9,14.7 132.5,18.4 129,16.7 	"/>
	<path class="st10" d="M132.5,18.4l-3.6-1.6l3-2.1L132.5,18.4z M129,16.7l3.4,1.6l-0.6-3.6L129,16.7z"/>
	<polygon class="st8" points="129,16.7 129.4,19.9 129.7,20 132.5,18.4 	"/>
	<g>
		<path class="st8" d="M129.7,20l-0.3-0.1l-0.4-3.2l3.6,1.6L129.7,20z M129.4,19.9h0.2l2.8-1.6l-3.4-1.6L129.4,19.9z"/>
	</g>
	<g>
		<g>
			<polygon class="st13" points="129.4,19.9 134.3,20.8 131.2,23 			"/>
		</g>
	</g>
	<g>
		<g>
			<path class="st13" d="M131.2,23L131.2,23l-1.8-3.1l0,0l5,0.9L131.2,23z M129.5,20l1.8,3l3-2.1L129.5,20z"/>
		</g>
	</g>
	<g>
		<polygon class="st14" points="129.7,20 132.5,18.4 134.3,20.8 		"/>
	</g>
	<g>
		<path class="st14" d="M134.4,20.8l-4.8-0.9h0.1l2.8-1.6l0,0L134.4,20.8z M129.7,20l4.6,0.8l-1.8-2.4L129.7,20z"/>
	</g>
	<polygon class="st15" points="127.2,14.5 124.2,17.8 123.7,15.8 124.4,14.6 	"/>
	<path class="st15" d="M124.1,17.8l-0.5-2.1l0.8-1.2l2.9-0.1L124.1,17.8z M123.7,15.8l0.5,2l3-3.2l-2.7,0.1L123.7,15.8z"/>
	<polygon class="st16" points="124.2,17.8 122.9,17.1 123.5,16 123.7,15.8 	"/>
	<path class="st16" d="M124.2,17.8l-1.4-0.7l0.9-1.4L124.2,17.8z M122.9,17.1l1.2,0.7l-0.5-1.9L122.9,17.1z"/>
	<path class="st17" d="M127.2,14.5l-2.8,0.1l0.4-0.6c0,0,0.2-0.5,0.8-0.7L127.2,14.5z"/>
	<path class="st18" d="M124.4,14.6l0.4-0.6c0,0,0.2-0.5,0.8-0.7l0,0l0,0l1.7,1.2L124.4,14.6z M125.6,13.3c-0.5,0.2-0.8,0.7-0.8,0.7
		l-0.3,0.5l2.7-0.1L125.6,13.3z"/>
	<path class="st18" d="M127.2,14.5l-1.7-1.2c0.1-0.1,0.3-0.1,0.5-0.1h0.8L127.2,14.5z"/>
	<path class="st18" d="M127.3,14.5l-1.7-1.3l0,0c0.2-0.1,0.3-0.1,0.5-0.1h0.8l0,0L127.3,14.5z M125.6,13.3l1.6,1.2l-0.3-1.2h-0.8
		C125.9,13.2,125.8,13.3,125.6,13.3z"/>
	<polygon class="st19" points="128.7,13.2 127.2,14.5 126.9,13.2 	"/>
	<path class="st19" d="M127.2,14.5l-0.4-1.3h1.9L127.2,14.5z M126.9,13.2l0.4,1.2l1.3-1.2H126.9z"/>
	<polygon class="st20" points="129.8,13.2 129.7,14.1 127.2,14.5 128.7,13.2 	"/>
	<path class="st20" d="M127.2,14.5l1.5-1.3h1.2l-0.2,0.9L127.2,14.5z M128.7,13.2l-1.4,1.2l2.3-0.4l0.1-0.9L128.7,13.2L128.7,13.2z"
		/>
	<polygon class="st21" points="131.9,14.7 129.7,14.1 129.8,13.2 130.9,13.2 	"/>
	<path class="st21" d="M132,14.7l-2.3-0.6l0.2-0.9h1.1L132,14.7z M129.7,14.1l2.2,0.6l-1-1.4h-1.1L129.7,14.1z"/>
	<path class="st22" d="M132.4,14.1l-0.5,0.6l-1-1.5h0.2c0.9,0,1.2,0.7,1.2,0.7L132.4,14.1z"/>
	<path class="st22" d="M131.9,14.7l-1.1-1.5h0.2c0.9,0,1.2,0.7,1.3,0.7l0.1,0.2L131.9,14.7z M130.9,13.2l1,1.4l0.4-0.6l-0.1-0.1
		C132.2,13.9,131.8,13.2,130.9,13.2C131,13.2,130.9,13.2,130.9,13.2z"/>
	<polygon class="st23" points="133.2,15.3 131.9,14.7 132.4,14.1 	"/>
	<path class="st23" d="M133.2,15.4l-1.3-0.7l0.5-0.6L133.2,15.4z M131.9,14.7l1.1,0.6l-0.7-1.2L131.9,14.7z"/>
	<g>
		<polygon class="st19" points="134.5,17.5 134.5,17.6 132.5,18.4 131.9,14.7 133.2,15.3 		"/>
	</g>
	<g>
		<path class="st19" d="M132.5,18.4L132.5,18.4l-0.6-3.8l1.3,0.7l0,0l1.4,2.2l0,0L132.5,18.4z M131.9,14.7l0.6,3.6l2-0.8l-1.4-2.2
			L131.9,14.7z"/>
	</g>
	<g>
		<g>
			<polygon class="st24" points="134.3,20.8 133.3,23.2 131.2,23 131.2,23 131.2,23 			"/>
		</g>
	</g>
	<g>
		<g>
			<path class="st24" d="M133.3,23.3L133.3,23.3l-2.1-0.3l0,0l3.2-2.2L133.3,23.3z M131.3,22.9l2,0.3l1-2.4L131.3,22.9z"/>
		</g>
	</g>
	<g>
		<polygon class="st25" points="133.3,23.2 131.9,24.1 131.2,23 		"/>
	</g>
	<g>
		<path class="st25" d="M131.9,24.1l-0.7-1.2l2.1,0.3L131.9,24.1z M131.3,23l0.7,1.1l1.3-0.8L131.3,23z"/>
	</g>
	<polygon class="st26" points="136.5,24.2 132.4,24.9 131.9,24.1 133.3,23.2 	"/>
	<g>
		<path class="st27" d="M132.4,24.9l-0.5-0.8l1.4-0.9l0,0l3.3,1L132.4,24.9z M132,24.1l0.5,0.8l4-0.7l-3.1-0.9L132,24.1z"/>
	</g>
	<g>
		<g>
			<polygon class="st28" points="136.5,24.2 133.3,23.2 134.3,20.8 			"/>
		</g>
	</g>
	<g>
		<g>
			<path class="st28" d="M136.6,24.3l-3.3-1l1.1-2.5L136.6,24.3z M133.3,23.2l3.2,1l-2.1-3.3L133.3,23.2z"/>
		</g>
	</g>
	<polygon class="st29" points="136.5,24.2 136.6,21 134.3,20.8 	"/>
	<g>
		<path class="st29" d="M136.5,24.3l-2.2-3.5l0,0l2.3,0.2l0,0L136.5,24.3z M134.4,20.8l2.1,3.3l0.1-3.2L134.4,20.8z"/>
	</g>
	<polygon class="st29" points="137.6,19.4 137.6,19.4 137.6,19.4 137.6,19.4 137.2,21.3 136.6,21 136.6,20.9 	"/>
	<path class="st30" d="M137.3,21.3l-0.7-0.4l0,0l1.1-1.6v0.1L137.3,21.3z M136.6,20.9l0.6,0.3l0.4-1.8L136.6,20.9z"/>
	<g>
		<polygon class="st31" points="135.9,19.8 135.9,19.8 134.3,20.8 135.3,18.8 		"/>
	</g>
	<g>
		<path class="st31" d="M134.3,20.9l1-2.1l0.7,1l0,0L134.3,20.9z M135.3,18.8l-0.9,1.9l1.5-1L135.3,18.8z"/>
	</g>
	<g>
		<g>
			<polygon class="st32" points="134.3,20.8 134.5,17.6 132.5,18.4 			"/>
		</g>
	</g>
	<g>
		<g>
			<path class="st32" d="M134.4,20.9l-1.9-2.5l2.1-0.8L134.4,20.9z M132.5,18.4l1.8,2.4l0.2-3.2L132.5,18.4z"/>
		</g>
	</g>
	<g>
		<g>
			<polygon class="st8" points="134.5,17.6 135.3,18.8 134.3,20.8 			"/>
		</g>
	</g>
	<g>
		<g>
			<path class="st8" d="M134.3,20.9l0.2-3.4l0.8,1.3L134.3,20.9z M134.5,17.6l-0.2,3.1l0.9-1.9L134.5,17.6z"/>
		</g>
	</g>
	<g>
		<g>
			<polygon class="st29" points="134.3,20.8 136.6,21 135.9,19.8 			"/>
		</g>
	</g>
	<g>
		<g>
			<path class="st29" d="M136.7,21l-2.4-0.2l1.6-1.1L136.7,21z M134.4,20.8l2.2,0.1l-0.7-1.1L134.4,20.8z"/>
		</g>
	</g>
	<polygon class="st33" points="136.5,24.2 136.6,21 141.5,23.7 	"/>
	<path class="st33" d="M136.5,24.2l0.1-3.3l4.9,2.8h-0.1L136.5,24.2z M136.6,21l-0.1,3.2l4.9-0.5L136.6,21z"/>
	<g>
		<polygon class="st34" points="136.5,24.2 135.4,26.4 133.3,26.4 133.3,26.4 		"/>
	</g>
	<g>
		<path class="st34" d="M135.4,26.4h-2.1l0,0l0,0l3.3-2.2L135.4,26.4z M133.3,26.4h2l1.1-2.1L133.3,26.4z"/>
	</g>
	<g>
		<polygon class="st27" points="136.5,24.2 133.3,26.4 132.4,24.9 		"/>
	</g>
	<g>
		<path class="st27" d="M133.3,26.4l-0.9-1.5l0,0l4.2-0.7L133.3,26.4z M132.4,24.9l0.8,1.4l3.1-2.1L132.4,24.9z"/>
	</g>
	<g>
		<polygon class="st35" points="141.5,23.7 141.9,21.4 137.2,21.3 		"/>
	</g>
	<g>
		<path class="st35" d="M141.5,23.7L141.5,23.7l-4.3-2.4l4.7,0.1L141.5,23.7z M137.3,21.3l4.1,2.3l0.4-2.2L137.3,21.3z"/>
	</g>
	<polygon class="st25" points="143.2,20.9 141.5,23.7 141.5,23.7 141.5,23.7 141.9,21.4 	"/>
	<g>
		<path class="st25" d="M141.4,23.8l0.4-2.4l0,0l1.4-0.6l-1.7,2.8L141.4,23.8z M141.9,21.5l-0.4,2.2l1.7-2.7L141.9,21.5z"/>
	</g>
	<g>
		<polygon class="st35" points="144.3,17.9 144.3,19.2 143.2,20.9 141.9,21.4 		"/>
	</g>
	<g>
		<path class="st35" d="M141.8,21.5l2.5-3.6v1.4l-1.1,1.7L141.8,21.5z M144.2,18l-2.3,3.4l1.3-0.5l1-1.7V18z"/>
	</g>
	<g>
		<polygon class="st36" points="141.9,21.4 137.2,21.3 137.6,19.4 137.6,19.4 137.6,19.4 137.6,19.4 137.6,19.4 138.1,18.7 		"/>
	</g>
	<g>
		<path class="st36" d="M141.9,21.5l-4.7-0.1l0.4-2l0.1-0.1l0,0l0.4-0.6l0,0L141.9,21.5z M137.3,21.3l4.5,0.1l-3.7-2.7l-0.4,0.7
			L137.3,21.3z"/>
	</g>
	<polygon class="st37" points="141.9,21.4 138.1,18.7 138.4,18.2 141.1,16.8 	"/>
	<g>
		<path class="st37" d="M141.9,21.5l-3.9-2.8l0.3-0.5l0,0l2.8-1.5L141.9,21.5z M138.1,18.7l3.8,2.7l-0.7-4.6l-2.8,1.5L138.1,18.7z"
			/>
	</g>
	<g>
		<polygon class="st38" points="141.9,21.4 141.1,16.8 144.3,17.9 		"/>
	</g>
	<g>
		<path class="st38" d="M141.9,21.5l-0.7-4.8l0,0l3.2,1.2l0,0L141.9,21.5z M141.2,16.8l0.7,4.6l2.4-3.5L141.2,16.8z"/>
	</g>
	<polygon class="st39" points="144.6,18.6 144.3,19.2 144.3,17.9 	"/>
	<path class="st39" d="M144.2,19.3v-1.5l0.4,0.8L144.2,19.3z M144.3,18v1.2l0.3-0.5L144.3,18z"/>
	<polygon class="st35" points="144.9,18.1 144.6,18.6 144.3,17.9 	"/>
	<path class="st35" d="M144.6,18.6l-0.4-0.8l0.7,0.3L144.6,18.6z M144.3,17.9l0.3,0.6l0.3-0.4L144.3,17.9z"/>
	<polygon class="st40" points="145.6,17 144.9,18.1 144.3,17.9 	"/>
	<path class="st40" d="M144.9,18.2l-0.7-0.3l1.5-0.9L144.9,18.2z M144.3,17.9l0.6,0.2l0.6-1L144.3,17.9z"/>
	<polygon class="st40" points="144.3,17.9 141.1,16.8 143.2,14.7 	"/>
	<path class="st40" d="M144.3,17.9l-3.2-1.2l2.1-2.1L144.3,17.9z M141.2,16.7l3.1,1.1l-1-3.1L141.2,16.7z"/>
	<polygon class="st41" points="141.1,16.8 138.4,18.2 139.5,16.5 	"/>
	<path class="st41" d="M138.3,18.3l1.2-1.9l1.7,0.3L138.3,18.3z M139.5,16.5l-1.1,1.7l2.7-1.4L139.5,16.5z"/>
	<polygon class="st39" points="141.1,13.8 141.1,16.8 139.5,16.5 139.5,16.5 	"/>
	<path class="st39" d="M141.2,16.8l-1.7-0.3l0,0l0,0l1.7-2.7V16.8z M139.5,16.4l1.6,0.3v-2.9L139.5,16.4z"/>
	<polygon class="st42" points="143.2,14.7 141.1,16.8 141.1,13.8 141.5,13.3 	"/>
	<path class="st42" d="M141.1,16.8v-3l0.3-0.5l1.8,1.5L141.1,16.8z M141.2,13.8v2.9l2-2l-1.7-1.4L141.2,13.8z"/>
	<polygon class="st43" points="146.7,15.4 145.6,17 145.6,17 144.3,17.9 143.2,14.7 	"/>
	<path class="st43" d="M144.3,17.9l-1.1-3.2l3.5,0.7l-1.1,1.7l0,0l0,0L144.3,17.9z M143.3,14.7l1,3.1l1.3-0.8l1-1.6L143.3,14.7z"/>
	<g>
		<polygon class="st44" points="147.1,14.7 147.1,14.7 146.7,15.4 143.2,14.7 147,11.7 		"/>
	</g>
	<g>
		<path class="st44" d="M146.7,15.4L146.7,15.4l-3.5-0.7l3.9-3.1l0.1,3.1L146.7,15.4z M143.3,14.7l3.4,0.6l0.4-0.6l-0.1-3
			L143.3,14.7z M147.1,14.7L147.1,14.7L147.1,14.7L147.1,14.7z"/>
	</g>
	<polygon class="st45" points="147.9,13.4 147.5,14 147.1,14.7 147,11.7 	"/>
	<path class="st45" d="M147,14.8l-0.1-3.2l0.9,1.8l-0.4,0.6L147,14.8z M147,11.8l0.1,2.9l0.4-0.6l0.4-0.6L147,11.8z"/>
	<polygon class="st46" points="150.3,9.5 150.3,9.5 150.3,9.5 150.3,9.5 147.9,13.4 147,11.7 	"/>
	<path class="st46" d="M147.9,13.4l-0.9-1.8l3.3-2.2l0,0l0,0L147.9,13.4z M147,11.7l0.9,1.7l2.3-3.8L147,11.7z"/>
	<polygon class="st47" points="147,11.7 147.7,8.6 150.3,9.5 	"/>
	<path class="st47" d="M147,11.7l0.8-3.2l0,0l2.6,0.9L147,11.7z M147.8,8.6l-0.7,3l3.2-2.1L147.8,8.6z"/>
	<polygon class="st48" points="150.3,9.5 152.4,6.8 152.4,10.7 	"/>
	<path class="st48" d="M152.4,10.7l-2.1-1.2l0,0l2.1-2.8V10.7z M150.3,9.5l2,1.2V6.8L150.3,9.5z"/>
	<polygon class="st46" points="147.7,8.6 147,11.7 144.8,9.1 	"/>
	<path class="st47" d="M147,11.7L144.8,9l3-0.5L147,11.7z M144.9,9.1l2.1,2.5l0.7-3L144.9,9.1z"/>
	<polygon class="st46" points="144.8,9.1 142.6,11.4 144.1,9 	"/>
	<path class="st46" d="M142.6,11.4L142.6,11.4l1.5-2.4h0.8L142.6,11.4z M144.1,9l-1.4,2.2l2-2.2H144.1z"/>
	<polygon class="st49" points="144.6,8.2 144.3,8.7 144.1,9 144.8,9.1 	"/>
	<path class="st49" d="M144.9,9.1h-0.8l0.5-0.9L144.9,9.1z M144.2,9h0.7l-0.2-0.7L144.2,9z"/>
	<polygon class="st50" points="144.8,9.1 147.7,8.6 148,6.1 	"/>
	<path class="st50" d="M144.8,9.1l3.3-3l-0.3,2.5l0,0L144.8,9.1z M148,6.2L144.9,9l2.8-0.5L148,6.2z"/>
	<polygon class="st51" points="148,6.1 144.8,9.1 145.6,6.6 145.6,6.6 145.6,6.6 	"/>
	<path class="st51" d="M144.8,9.1l0.8-2.5l0,0l2.4-0.5L144.8,9.1z M145.6,6.6L145.6,6.6L144.9,9l3-2.8L145.6,6.6z"/>
	<polygon class="st47" points="145.6,6.6 144.8,9.1 144.6,8.2 	"/>
	<path class="st47" d="M144.8,9.1l-0.2-0.9l0,0l1.1-1.7L144.8,9.1z M144.6,8.2l0.2,0.7l0.7-2.2L144.6,8.2z"/>
	<g>
		<polygon class="st52" points="148,6.1 145.6,6.6 143.7,5.4 144,5.3 		"/>
		<path class="st52" d="M145.6,6.6L145.6,6.6l-2-1.2l0.3-0.2l4.1,0.9L145.6,6.6z M143.7,5.4l1.9,1.2l2.3-0.5L144,5.3L143.7,5.4z"/>
	</g>
	<polygon class="st53" points="148.5,3.9 148,6.1 144,5.3 146.2,4.2 146.2,4.2 	"/>
	<path class="st53" d="M148,6.2L148,6.2l-4.1-0.9l2.3-1.1l2.4-0.4L148,6.2z M144,5.3l3.9,0.9l0.5-2.2l-2.3,0.4L144,5.3z"/>
	<polygon class="st54" points="148,6.1 147.7,8.6 150.3,9.5 	"/>
	<path class="st54" d="M150.4,9.5l-2.6-1l0.3-2.5L150.4,9.5z M147.8,8.5l2.5,0.9l-2.2-3.3L147.8,8.5z"/>
	<polygon class="st53" points="148,6.1 152.4,6.8 150.3,9.5 	"/>
	<path class="st53" d="M150.3,9.5L148,6.1l4.4,0.7l0,0L150.3,9.5z M148,6.2l2.2,3.3l2-2.7L148,6.2z"/>
	<polygon class="st55" points="148,6.1 148.5,3.9 152.4,6.8 	"/>
	<path class="st55" d="M152.4,6.8l-4.5-0.7l0.5-2.3L152.4,6.8z M148,6.1l4.3,0.6l-3.7-2.8L148,6.1z"/>
	<polygon class="st52" points="148.5,3.9 146.2,4.2 148.1,3.3 	"/>
	<path class="st52" d="M146,4.3l2.1-1l0.4,0.6L146,4.3z M148.1,3.3l-1.8,0.9l2.2-0.3L148.1,3.3z"/>
	<polygon class="st53" points="150.2,2.3 148.5,3.9 148.1,3.3 	"/>
	<path class="st53" d="M148.5,3.9l-0.4-0.6l2.2-1.1L148.5,3.9z M148.2,3.3l0.4,0.5l1.6-1.5L148.2,3.3z"/>
	<polygon class="st56" points="152.4,6.8 148.5,3.9 150.2,2.3 150.2,2.3 151.2,1.8 	"/>
	<path class="st56" d="M152.4,6.8L152.4,6.8l-3.9-3l1.7-1.6l0,0l1-0.5L152.4,6.8z M148.6,3.9l3.8,2.9l-1.1-4.9l-0.9,0.5L148.6,3.9z"
		/>
	<polygon class="st57" points="152.4,1.2 152.4,6.7 152.4,6.8 151.2,1.8 	"/>
	<path class="st57" d="M152.4,6.9l-1.2-5.1l1.2-0.6v5.5V6.9z M151.2,1.8l1.1,4.8V1.3L151.2,1.8z"/>
	<polygon class="st58" points="121.3,22.5 120.7,20.5 120.7,20.5 119.3,22.8 119.3,22.8 	"/>
	<path class="st58" d="M119.2,22.8l1.5-2.4l0,0l0.6,2L119.2,22.8z M120.7,20.6l-1.4,2.2l2-0.3L120.7,20.6z"/>
	<polygon class="st59" points="121.3,22.5 119.3,22.8 119.3,22.8 118.4,24.3 118.4,24.3 	"/>
	<path class="st59" d="M118.3,24.4l1-1.6l0,0l2.2-0.4L118.3,24.4L118.3,24.4z M119.3,22.8l-0.9,1.4l2.8-1.8L119.3,22.8z"/>
	<g>
		<polygon class="st60" points="136.5,24.2 138.6,26.3 135.4,26.4 		"/>
		<path class="st60" d="M135.3,26.4l1.2-2.2l2.1,2.2H135.3z M136.5,24.3l-1.1,2.1h3.1L136.5,24.3z"/>
	</g>
	<path class="st37" d="M141.5,23.7L141.5,23.7L141.5,23.7L141.5,23.7l-0.7,1.2c-0.5,0.8-1.3,1.3-2.2,1.4l-2.1-2.1L141.5,23.7
		L141.5,23.7z"/>
	<path class="st37" d="M138.6,26.4L138.6,26.4l-2.1-2.2l5-0.5l0,0l0,0l-0.7,1.2C140.3,25.7,139.5,26.2,138.6,26.4L138.6,26.4z
		 M136.6,24.2l2.1,2.1c0.9-0.2,1.7-0.7,2.1-1.4l0.7-1.1L136.6,24.2z"/>
	<g>
		<polygon class="st44" points="141.5,13.3 142.6,11.4 143.2,14.7 		"/>
	</g>
	<g>
		<path class="st44" d="M143.3,14.8l-1.8-1.5l1.2-1.9L143.3,14.8z M141.5,13.3l1.7,1.4l-0.6-3.2L141.5,13.3z"/>
	</g>
	<g>
		<path class="st61" d="M143.2,14.7"/>
	</g>
	<polygon class="st62" points="143.2,14.7 147,11.7 142.6,11.4 	"/>
	<g>
		<path class="st62" d="M143.2,14.8l-0.6-3.4l4.5,0.3L143.2,14.8z M142.6,11.4l0.6,3.2l3.7-3L142.6,11.4z"/>
	</g>
	<polygon class="st63" points="142.6,11.4 144.8,9.1 147,11.7 	"/>
	<path class="st63" d="M147.1,11.7l-4.5-0.3l2.3-2.4L147.1,11.7z M142.7,11.4l4.3,0.2L144.9,9L142.7,11.4z"/>
	<polygon class="st64" points="121.3,22.5 118.4,24.3 117.1,26.4 120.5,26.4 	"/>
	<path class="st64" d="M117,26.4l1.3-2.1l3-1.9v0.1l-0.9,3.9H117z M118.4,24.4l-1.3,2h3.4l0.8-3.9L118.4,24.4z"/>
	<polygon class="st65" points="121.4,22.5 120.5,26.4 122.5,26.4 	"/>
	<path class="st65" d="M120.5,26.4L120.5,26.4l0.9-4l1.2,4H120.5z M121.4,22.5l-0.8,3.8h1.9L121.4,22.5z"/>
	<path class="st66" d="M121.3,22.5l3.3,2.4c0,0-0.6,1.4-2.1,1.5L121.3,22.5z"/>
	<path class="st66" d="M122.5,26.4l-1.2-4l3.3,2.4l0,0C124.6,24.9,124,26.2,122.5,26.4L122.5,26.4z M121.4,22.5l1.1,3.8
		c1.4-0.1,2-1.3,2.1-1.5L121.4,22.5z"/>
</g>
<path class="st67" d="M4.8,26.6c-0.2-0.1-0.2-0.2-0.2-0.4l0.1-0.7c0-0.2,0.2-1.2,0.6-3.1h-1c-0.2,0-0.4-0.1-0.6-0.3
	c-0.1-0.2-0.2-0.5-0.2-0.9v-0.2c0-0.4,0.1-0.7,0.2-0.9s0.3-0.3,0.6-0.3h1.5l0.5-2.6H5.2c-0.2,0-0.4-0.1-0.6-0.3
	c-0.1-0.2-0.2-0.5-0.2-0.9v-0.2c0-0.4,0.1-0.7,0.2-0.9c0.1-0.2,0.3-0.3,0.6-0.3h1.6l0.6-3.4c0.1-0.5,0.6-0.7,1.4-0.7h0.3
	c0.7,0,1,0.2,1,0.5l-0.6,3.6h2.2l0.6-3.4c0.1-0.5,0.6-0.7,1.4-0.7H14c0.7,0,1,0.2,1,0.5l-0.6,3.6h0.8c0.2,0,0.4,0.1,0.6,0.3
	c0.1,0.2,0.2,0.5,0.2,0.9V16c0,0.4-0.1,0.7-0.2,0.9c-0.1,0.2-0.3,0.3-0.6,0.3H14l-0.5,2.6h1c0.2,0,0.4,0.1,0.6,0.3
	c0.1,0.2,0.2,0.5,0.2,0.9v0.2c0,0.4-0.1,0.7-0.2,0.9c-0.1,0.2-0.3,0.3-0.6,0.3H13L12.3,26c-0.1,0.5-0.6,0.7-1.3,0.7h-0.3
	c-0.4,0-0.6,0-0.8-0.1s-0.2-0.2-0.2-0.4l0.1-0.7c0-0.2,0.2-1.2,0.6-3.1H8L7.3,26c-0.1,0.5-0.6,0.7-1.3,0.7H5.7
	C5.3,26.8,5.1,26.7,4.8,26.6z M10.7,19.8l0.5-2.6H8.9l-0.5,2.6H10.7z"/>
<path class="st68" d="M19,26.1c-0.1-0.2-0.1-0.4-0.1-0.7V25c0-0.3,0-0.6,0.1-0.7c0.1-0.2,0.2-0.2,0.4-0.2H22v-8.8l-2.7,0.4
	c-0.2,0-0.4-0.2-0.5-0.5c-0.1-0.4-0.1-0.7-0.1-1.1c0-0.3,0.2-0.5,0.5-0.5l4.9-0.9c0.2,0,0.3,0,0.5,0.1s0.3,0.2,0.3,0.3v11H27
	c0.2,0,0.4,0.1,0.4,0.2c0.1,0.2,0.1,0.4,0.1,0.7v0.3c0,0.3,0,0.6-0.1,0.7c-0.1,0.2-0.2,0.2-0.4,0.2h-7.6
	C19.3,26.3,19.1,26.2,19,26.1z"/>
<path class="st68" d="M28.7,25.7c-0.1-0.4-0.2-0.8-0.2-1.1c0-0.1,0-0.2,0.1-0.3l4.9-6c0.5-0.6,0.7-1.2,0.7-1.9
	c0-0.5-0.2-0.9-0.5-1.2s-0.8-0.4-1.3-0.4c-0.4,0-0.7,0.1-0.9,0.2c-0.3,0.1-0.5,0.3-0.8,0.4c-0.2,0.2-0.4,0.2-0.5,0.2
	c-0.3,0-0.5-0.2-0.8-0.5c-0.2-0.3-0.3-0.6-0.3-0.9c0-0.5,0.4-1,1.2-1.3c0.8-0.3,1.7-0.5,2.7-0.5c1.3,0,2.4,0.4,3.1,1.1
	c0.7,0.7,1.1,1.6,1.1,2.8c0,1.1-0.4,2.2-1.2,3.2L32.3,24h4.5c0.2,0,0.4,0.1,0.4,0.2c0.1,0.2,0.1,0.4,0.1,0.7v0.3
	c0,0.3,0,0.6-0.1,0.7c-0.1,0.2-0.2,0.2-0.4,0.2H29C28.9,26.3,28.8,26.1,28.7,25.7z"/>
<path class="st68" d="M47.6,25.7v-6l-3.9-6.2c-0.1-0.2-0.2-0.4-0.2-0.5c0-0.3,0.4-0.4,1.2-0.4h0.8c0.6,0,1,0.1,1.2,0.4l2.4,4.2
	l2.4-4.2c0.1-0.2,0.5-0.4,1.2-0.4h0.7c0.8,0,1.2,0.1,1.2,0.4c0,0.1-0.1,0.3-0.2,0.5l-3.9,6.3v5.9c0,0.4-0.4,0.6-1.2,0.6h-0.7
	C48,26.3,47.6,26.1,47.6,25.7z"/>
<path class="st68" d="M56.6,26.1c-0.1-0.1-0.2-0.3-0.2-0.6V13.4c0-0.3,0.1-0.5,0.2-0.6c0.1-0.1,0.3-0.2,0.6-0.2H64
	c0.2,0,0.4,0.1,0.4,0.2c0.1,0.2,0.1,0.4,0.1,0.7v0.6c0,0.3,0,0.6-0.1,0.7S64.2,15,64,15h-4.6v3h4.1c0.2,0,0.4,0.1,0.4,0.2
	c0.1,0.2,0.1,0.4,0.1,0.7v0.6c0,0.3,0,0.6-0.1,0.7c-0.1,0.2-0.2,0.2-0.4,0.2h-4.1v3.2H64c0.2,0,0.4,0.1,0.4,0.2
	c0.1,0.2,0.1,0.4,0.1,0.7v0.6c0,0.3,0,0.6-0.1,0.7C64.3,26,64.2,26,64,26h-6.9C56.9,26.3,56.7,26.2,56.6,26.1z"/>
<path class="st68" d="M65.9,25.9c0-0.1,0-0.2,0.1-0.4L70.3,13c0.1-0.3,0.5-0.4,1.1-0.4h1c0.6,0,1,0.1,1.1,0.4l4.3,12.5
	c0,0.1,0.1,0.2,0.1,0.4c0,0.3-0.3,0.4-1,0.4H76c-0.6,0-1-0.1-1.1-0.4l-0.8-2.4h-4.6l-0.8,2.4c-0.1,0.3-0.4,0.4-0.9,0.4H67
	C66.3,26.3,65.9,26.2,65.9,25.9z M73.3,21l-1.1-3.5c-0.1-0.3-0.2-0.7-0.3-1.2h-0.1c0,0.1,0,0.3-0.1,0.5c0,0.3-0.1,0.5-0.2,0.7
	L70.4,21H73.3z"/>
<path class="st68" d="M79.6,25.7V13.4c0-0.3,0.1-0.5,0.2-0.6s0.3-0.2,0.6-0.2h3.8c3.2,0,4.9,1.2,4.9,3.7c0,0.7-0.2,1.4-0.6,1.9
	s-1,0.9-1.7,1.2v0.1c0.2,0.1,0.5,0.3,0.8,0.7c0.3,0.3,0.5,0.7,0.6,1.1l1.7,4.3C90,25.8,90,25.9,90,26s-0.1,0.2-0.3,0.3
	c-0.2,0.1-0.5,0.1-0.9,0.1H88c-0.6,0-1-0.1-1.1-0.4l-1.5-3.8c-0.2-0.4-0.5-0.7-0.7-0.9C84.3,21,83.9,21,83.3,21h-0.8v4.8
	c0,0.4-0.4,0.6-1.2,0.6h-0.6C79.9,26.3,79.6,26.1,79.6,25.7z M84.4,18.4c0.4,0,0.8-0.2,1.1-0.5c0.3-0.3,0.4-0.7,0.4-1.2
	s-0.1-0.8-0.4-1.1s-0.7-0.4-1.2-0.4h-1.7v3.2H84.4z"/>
<path class="st68" d="M93,26.2c-0.7-0.2-1.2-0.4-1.6-0.7c-0.4-0.2-0.5-0.5-0.5-0.7s0.1-0.4,0.2-0.7s0.3-0.5,0.5-0.7s0.4-0.3,0.5-0.3
	s0.3,0.1,0.5,0.2c0.4,0.2,0.8,0.4,1.1,0.5c0.3,0.1,0.7,0.2,1.2,0.2s0.9-0.1,1.3-0.3c0.4-0.2,0.5-0.6,0.5-1.1c0-0.4-0.2-0.7-0.5-1
	c-0.3-0.2-0.9-0.5-1.6-0.8l-0.9-0.4c-0.8-0.4-1.5-0.9-1.9-1.5c-0.5-0.6-0.7-1.4-0.7-2.5c0-0.9,0.2-1.6,0.7-2.2c0.4-0.6,1-1,1.7-1.3
	s1.5-0.4,2.3-0.4c0.7,0,1.3,0.1,1.8,0.2c0.5,0.1,1,0.3,1.3,0.5s0.4,0.4,0.4,0.6c0,0.2-0.1,0.4-0.2,0.7s-0.3,0.5-0.4,0.7
	c-0.2,0.2-0.3,0.3-0.5,0.3c-0.1,0-0.2,0-0.3-0.1c-0.1-0.1-0.3-0.1-0.4-0.2C97,15,96.5,15,96,15c-0.7,0-1.1,0.1-1.4,0.3
	s-0.4,0.5-0.4,0.8c0,0.3,0.1,0.6,0.3,0.8c0.2,0.2,0.4,0.4,0.7,0.5c0.3,0.1,0.6,0.3,1.2,0.5c0.7,0.3,1.3,0.6,1.8,0.9s0.9,0.7,1.2,1.2
	c0.3,0.5,0.5,1.2,0.5,2c0,1-0.2,1.8-0.6,2.5c-0.4,0.6-1,1.1-1.6,1.4c-0.7,0.3-1.4,0.4-2.1,0.4C94.5,26.5,93.7,26.4,93,26.2z"/>
<path class="st68" d="M108.3,25.2c-1-0.8-1.5-2-1.5-3.5v-8.5c0-0.4,0.4-0.6,1.2-0.6h0.7c0.8,0,1.2,0.2,1.2,0.6v8.3
	c0,0.7,0.2,1.3,0.7,1.7c0.5,0.4,1.1,0.7,1.9,0.7s1.4-0.2,1.9-0.7c0.5-0.4,0.8-1,0.8-1.7v-8.3c0-0.4,0.4-0.6,1.2-0.6h0.6
	c0.8,0,1.2,0.2,1.2,0.6v8.5c0,1.5-0.5,2.7-1.5,3.5s-2.4,1.2-4.2,1.2S109.3,26,108.3,25.2z"/>
<path class="st68" d="M147.6,26.2c-0.7-0.2-1.2-0.4-1.6-0.7c-0.4-0.2-0.5-0.5-0.5-0.7s0.1-0.4,0.2-0.7c0.1-0.3,0.3-0.5,0.5-0.7
	s0.4-0.3,0.5-0.3s0.3,0.1,0.5,0.2c0.4,0.2,0.8,0.4,1.1,0.5s0.7,0.2,1.2,0.2s0.9-0.1,1.3-0.3c0.4-0.2,0.5-0.6,0.5-1.1
	c0-0.4-0.2-0.7-0.5-1s-0.9-0.5-1.6-0.8l-0.9-0.4c-0.8-0.4-1.5-0.9-1.9-1.5c-0.5-0.6-0.7-1.4-0.7-2.5c0-0.9,0.2-1.6,0.7-2.2
	c0.4-0.6,1-1,1.7-1.3s1.5-0.4,2.3-0.4c0.7,0,1.3,0.1,1.8,0.2c0.5,0.1,1,0.3,1.3,0.5s0.4,0.4,0.4,0.6c0,0.2-0.1,0.4-0.2,0.7
	c-0.1,0.3-0.3,0.5-0.4,0.7c-0.2,0.2-0.3,0.3-0.5,0.3c-0.1,0-0.2,0-0.3-0.1s-0.3-0.1-0.4-0.2c-0.5-0.2-1-0.2-1.5-0.2
	c-0.7,0-1.1,0.1-1.4,0.3c-0.3,0.2-0.4,0.5-0.4,0.8c0,0.3,0.1,0.6,0.3,0.8c0.2,0.2,0.4,0.4,0.7,0.5s0.6,0.3,1.2,0.5
	c0.7,0.3,1.3,0.6,1.8,0.9s0.9,0.7,1.2,1.2s0.5,1.2,0.5,2c0,1-0.2,1.8-0.6,2.5c-0.4,0.6-1,1.1-1.6,1.4c-0.7,0.3-1.4,0.4-2.1,0.4
	C149,26.5,148.2,26.4,147.6,26.2z"/>
<path class="st68" d="M158.9,25.7V15.2h-3.1c-0.2,0-0.4-0.1-0.4-0.2c-0.1-0.2-0.1-0.4-0.1-0.7v-0.6c0-0.3,0-0.6,0.1-0.7
	c0.1-0.2,0.2-0.2,0.4-0.2h9.2c0.2,0,0.4,0.1,0.4,0.2c0.1,0.2,0.1,0.4,0.1,0.7v0.6c0,0.3,0,0.6-0.1,0.7c-0.1,0.2-0.2,0.2-0.4,0.2
	h-3.1v10.5c0,0.4-0.4,0.6-1.2,0.6H160C159.3,26.3,158.9,26.1,158.9,25.7z"/>
<path class="st68" d="M168.6,24.7c-1.1-1.2-1.6-2.9-1.6-5.2c0-2.2,0.5-4,1.6-5.2s2.6-1.8,4.6-1.8s3.6,0.6,4.6,1.8
	c1.1,1.2,1.6,2.9,1.6,5.2c0,2.2-0.5,4-1.6,5.2s-2.6,1.8-4.6,1.8S169.7,25.9,168.6,24.7z M175.6,22.8c0.5-0.8,0.8-1.9,0.8-3.3
	s-0.3-2.5-0.8-3.3c-0.5-0.7-1.3-1.1-2.4-1.1c-1,0-1.8,0.4-2.4,1.1c-0.5,0.7-0.8,1.8-0.8,3.3c0,1.4,0.3,2.5,0.8,3.3s1.3,1.1,2.4,1.1
	C174.3,23.9,175.1,23.5,175.6,22.8z"/>
<path class="st68" d="M182.1,25.7V13.4c0-0.3,0.1-0.5,0.2-0.6c0.1-0.1,0.3-0.2,0.6-0.2h4.1c1.2,0,2.3,0.3,3.2,0.9
	c0.9,0.6,1.4,1.7,1.4,3.4c0,1.1-0.3,2-0.8,2.7c-0.5,0.6-1.2,1.1-1.8,1.3c-0.7,0.2-1.3,0.3-1.8,0.3h-2.1v4.5c0,0.4-0.4,0.6-1.2,0.6
	h-0.7C182.4,26.3,182.1,26.1,182.1,25.7z M186.8,18.6c0.5,0,0.9-0.1,1.2-0.4c0.3-0.2,0.5-0.7,0.5-1.3s-0.2-1.1-0.5-1.3
	c-0.3-0.3-0.7-0.4-1.2-0.4h-1.7v3.4C185.1,18.6,186.8,18.6,186.8,18.6z"/>
<path class="st68" d="M193.5,25.7V13.4c0-0.3,0.1-0.5,0.2-0.6c0.1-0.1,0.3-0.2,0.6-0.2h4.1c1.2,0,2.3,0.3,3.2,0.9
	c0.9,0.6,1.4,1.7,1.4,3.4c0,1.1-0.3,2-0.8,2.7c-0.5,0.6-1.2,1.1-1.8,1.3c-0.7,0.2-1.3,0.3-1.8,0.3h-2.1v4.5c0,0.4-0.4,0.6-1.2,0.6
	h-0.6C193.9,26.3,193.5,26.1,193.5,25.7z M198.3,18.6c0.5,0,0.9-0.1,1.2-0.4c0.3-0.2,0.5-0.7,0.5-1.3s-0.2-1.1-0.5-1.3
	c-0.3-0.3-0.7-0.4-1.2-0.4h-1.7v3.4C196.6,18.6,198.3,18.6,198.3,18.6z"/>
<path class="st68" d="M203.6,25.9c0-0.1,0-0.2,0.1-0.4L208,13c0.1-0.3,0.5-0.4,1.1-0.4h1c0.7,0,1,0.1,1.1,0.4l4.3,12.5
	c0,0.1,0.1,0.2,0.1,0.4c0,0.3-0.3,0.4-1,0.4h-0.9c-0.6,0-1-0.1-1.1-0.4l-0.8-2.4h-4.6l-0.8,2.4c-0.1,0.3-0.4,0.4-0.9,0.4h-0.8
	C204,26.3,203.6,26.2,203.6,25.9z M211,21l-1.1-3.5c-0.1-0.3-0.2-0.7-0.3-1.2h-0.1c0,0.1,0,0.3-0.1,0.5c0,0.3-0.1,0.5-0.2,0.7
	L208,21H211z"/>
<path class="st68" d="M217.6,26.1c-0.1-0.1-0.2-0.3-0.2-0.6V13.4c0-0.3,0.1-0.5,0.2-0.6c0.1-0.1,0.3-0.2,0.6-0.2h3.9
	c1.6,0,2.7,0.3,3.5,0.9c0.7,0.6,1.1,1.5,1.1,2.5c0,0.7-0.2,1.2-0.6,1.8c-0.4,0.5-0.9,0.9-1.5,1.2v0.1c0.8,0.2,1.4,0.5,1.9,1.2
	s0.7,1.3,0.7,2c0,1.3-0.4,2.3-1.2,2.9c-0.8,0.7-2,1-3.7,1h-4.1C217.9,26.3,217.7,26.2,217.6,26.1z M221.8,18.1c0.6,0,1-0.1,1.3-0.4
	s0.5-0.6,0.5-1.1c0-1-0.6-1.4-1.8-1.4h-1.4v2.9H221.8z M222.3,23.7c0.6,0,1-0.1,1.3-0.4s0.5-0.7,0.5-1.2s-0.2-0.9-0.5-1.1
	c-0.4-0.3-0.9-0.4-1.6-0.4h-1.6v3.1H222.3z"/>
<path class="st68" d="M229.5,26.1c-0.1-0.1-0.2-0.3-0.2-0.6V13.2c0-0.4,0.4-0.6,1.2-0.6h0.7c0.8,0,1.2,0.2,1.2,0.6v10.5h4.2
	c0.2,0,0.4,0.1,0.4,0.2c0.1,0.2,0.1,0.4,0.1,0.7v0.6c0,0.3,0,0.6-0.1,0.7c-0.1,0.2-0.2,0.2-0.4,0.2h-6.4
	C229.8,26.3,229.6,26.2,229.5,26.1z"/>
<path class="st68" d="M239.3,26.1c-0.1-0.1-0.2-0.3-0.2-0.6V13.4c0-0.3,0.1-0.5,0.2-0.6c0.1-0.1,0.3-0.2,0.6-0.2h6.8
	c0.2,0,0.4,0.1,0.4,0.2c0.1,0.2,0.1,0.4,0.1,0.7v0.6c0,0.3,0,0.6-0.1,0.7c-0.1,0.2-0.2,0.2-0.4,0.2h-4.6v3h4.1
	c0.2,0,0.4,0.1,0.4,0.2c0.1,0.2,0.1,0.4,0.1,0.7v0.6c0,0.3,0,0.6-0.1,0.7c-0.1,0.2-0.2,0.2-0.4,0.2h-4.1v3.2h4.6
	c0.2,0,0.4,0.1,0.4,0.2c0.1,0.2,0.1,0.4,0.1,0.7v0.6c0,0.3,0,0.6-0.1,0.7c-0.1,0.2-0.2,0.2-0.4,0.2h-6.9
	C239.6,26.3,239.4,26.2,239.3,26.1z"/>
</svg>
