<?xml version="1.0" encoding="utf-8"?>
<!-- Generator: Adobe Illustrator 24.2.3, SVG Export Plug-In . SVG Version: 6.00 Build 0)  -->
<svg version="1.1" id="Layer_1" xmlns="http://www.w3.org/2000/svg" xmlns:xlink="http://www.w3.org/1999/xlink" x="0px" y="0px"
	 viewBox="0 0 301.7 276" style="enable-background:new 0 0 301.7 276;" xml:space="preserve">
<style type="text/css">
	.st0{fill:url(#SVGID_1_);}
	.st1{fill:url(#SVGID_2_);}
	.st2{fill:#800F34;}
	.st3{fill:#790D28;}
	.st4{fill:#C85C6F;}
	.st5{fill:#C12F4A;}
	.st6{fill:#E42647;}
	.st7{fill:#DA2336;}
	.st8{fill:#87516A;}
	.st9{fill:#C0566A;}
	.st10{fill:#E95668;}
	.st11{fill:#DF2449;}
	.st12{fill:#F2AC81;}
	.st13{fill:#F29874;}
	.st14{fill:#EE736F;}
	.st15{fill:#B42038;}
	.st16{fill:#DE1D47;}
	.st17{fill:#EC7278;}
	.st18{fill:#A1516B;}
	.st19{fill:#F2A389;}
	.st20{fill:#F5BA95;}
	.st21{fill:#F3A689;}
	.st22{fill:#F3BA8C;}
	.st23{fill:#F3B576;}
	.st24{fill:#F3C29A;}
	.st25{fill:#E0A490;}
	.st26{fill:#9B2729;}
	.st27{fill:#B92432;}
	.st28{fill:#7E272A;}
	.st29{fill:#8A242B;}
	.st30{fill:#DF453E;}
	.st31{fill:#CB3E43;}
	.st32{fill:#E53C3C;}
	.st33{fill:#CF4163;}
	.st34{fill:#EA6F76;}
	.st35{fill:#E23833;}
	.st36{fill:#94242C;}
	.st37{fill:#E24233;}
	.st38{fill:#A42330;}
	.st39{fill:#DD302C;}
	.st40{fill:#C8262E;}
	.st41{fill:#D53431;}
	.st42{fill:#CD2437;}
	.st43{fill:#E54730;}
	.st44{fill:#DC3B32;}
	.st45{fill:#F15D23;}
	.st46{fill:#F96D1A;}
	.st47{fill:#EE5827;}
	.st48{fill:#FF7814;}
	.st49{fill:#F36C12;}
	.st50{fill:#E1590E;}
	.st51{fill:#E46410;}
	.st52{fill:#F19117;}
	.st53{fill:#E66A11;}
	.st54{fill:#EE8616;}
	.st55{fill:#EA7A14;}
	.st56{fill:#F29618;}
	.st57{fill:#F5A11A;}
	.st58{fill:#E87E13;}
	.st59{fill:#FAB21D;}
	.st60{fill:#F8C320;}
	.st61{fill:#F4BC1C;}
	.st62{fill:#470A2C;}
	.st63{fill:#25072D;}
	.st64{fill:#FFA4A4;stroke:#000000;stroke-width:0.5;stroke-miterlimit:10;}
	.st65{fill:#F36220;}
	.st66{fill:#ED6510;}
	.st67{fill:#391137;}
	.st68{fill:#3D1138;}
	.st69{fill:#520B35;}
</style>
<g>
	<g>
		<linearGradient id="SVGID_1_" gradientUnits="userSpaceOnUse" x1="63.1923" y1="236.2867" x2="267.8198" y2="79.7889">
			<stop  offset="0" style="stop-color:#800F34"/>
			<stop  offset="0.1549" style="stop-color:#CB3E43"/>
			<stop  offset="0.2997" style="stop-color:#DE1D47"/>
			<stop  offset="0.4665" style="stop-color:#C43C3A"/>
			<stop  offset="0.6285" style="stop-color:#E23833"/>
			<stop  offset="0.828" style="stop-color:#FF7814"/>
			<stop  offset="1" style="stop-color:#F8C320"/>
		</linearGradient>
		<path class="st0" d="M265.2,113.5l-11.3,17.9c0.3,3.5,0.5,7,0.5,10.6c0,15.4-3,30.4-9,44.4c-5.7,13.6-14,25.8-24.5,36.3
			c-10.5,10.5-22.7,18.7-36.3,24.5c-14.1,5.9-29,9-44.4,9c-15.4,0-30.3-3-44.4-9c-13.6-5.7-25.8-14-36.3-24.5
			c-10.5-10.5-18.7-22.7-24.5-36.3c-5-11.9-7.9-24.3-8.7-37.2h-14c3.7,67.4,59.6,120.9,127.9,120.9c70.7,0,128.1-57.3,128.1-128.1
			C268.4,132.2,267.3,122.7,265.2,113.5z"/>
		<linearGradient id="SVGID_2_" gradientUnits="userSpaceOnUse" x1="292.2177" y1="153.6385" x2="205.4381" y2="37.0939">
			<stop  offset="0" style="stop-color:#800F34"/>
			<stop  offset="0.1549" style="stop-color:#CB3E43"/>
			<stop  offset="0.2997" style="stop-color:#DE1D47"/>
			<stop  offset="0.4665" style="stop-color:#C43C3A"/>
			<stop  offset="0.6285" style="stop-color:#E23833"/>
			<stop  offset="0.828" style="stop-color:#FF7814"/>
			<stop  offset="1" style="stop-color:#F8C320"/>
		</linearGradient>
		<path class="st1" d="M230.7,72.4l8.3-12c-11.7-14.2-26.4-25.7-43.2-33.8l-4.6,13.3c11,5.5,20.9,12.7,29.7,21.4
			C224.5,64.8,227.7,68.5,230.7,72.4z"/>
		<g>
			<defs>
				<polygon id="SVGID_74_" points="180.5,40.4 173,32.2 163,36.8 168.4,27.2 161,19 171.8,21.3 177.3,11.6 178.5,22.6 189.3,24.9 
					179.2,29.4 				"/>
			</defs>
			<use xlink:href="#SVGID_74_"  style="overflow:visible;fill:#F5A11A;"/>
			<clipPath id="SVGID_3_">
				<use xlink:href="#SVGID_74_"  style="overflow:visible;"/>
			</clipPath>
		</g>
		<g>
			<defs>
				<polygon id="SVGID_76_" points="129.2,33.4 132.7,22.9 123.8,16.3 134.9,16.4 138.3,5.9 141.7,16.5 152.7,16.6 143.7,23 
					147.1,33.5 138.2,26.9 				"/>
			</defs>
			<use xlink:href="#SVGID_76_"  style="overflow:visible;fill:#F5A11A;"/>
			<clipPath id="SVGID_4_">
				<use xlink:href="#SVGID_76_"  style="overflow:visible;"/>
			</clipPath>
		</g>
		<g>
			<defs>
				<polygon id="SVGID_78_" points="115.6,33.1 105.1,29.7 98.6,38.7 98.6,27.6 88,24.3 98.6,20.8 98.5,9.8 105,18.7 115.5,15.2 
					109,24.2 				"/>
			</defs>
			<use xlink:href="#SVGID_78_"  style="overflow:visible;fill:#F5A11A;"/>
			<clipPath id="SVGID_5_">
				<use xlink:href="#SVGID_78_"  style="overflow:visible;"/>
			</clipPath>
		</g>
		<g>
			<defs>
				<polygon id="SVGID_80_" points="85.8,43.6 76.4,37.7 79.1,27 70.6,34.1 61.2,28.2 65.4,38.5 56.9,45.6 67.9,44.8 72,55.1 
					74.7,44.3 				"/>
			</defs>
			<use xlink:href="#SVGID_80_"  style="overflow:visible;fill:#F5A11A;"/>
			<clipPath id="SVGID_6_">
				<use xlink:href="#SVGID_80_"  style="overflow:visible;"/>
			</clipPath>
		</g>
		<g>
			<defs>
				<polygon id="SVGID_82_" points="26.8,139.3 22.7,129 31.3,122 20.3,122.6 16.3,112.3 13.5,123 2.4,123.6 11.7,129.6 8.9,140.3 
					17.5,133.3 				"/>
			</defs>
			<use xlink:href="#SVGID_82_"  style="overflow:visible;fill:#F5A11A;"/>
			<clipPath id="SVGID_7_">
				<use xlink:href="#SVGID_82_"  style="overflow:visible;"/>
			</clipPath>
		</g>
		<g>
			<defs>
				<polygon id="SVGID_84_" points="42.5,92 31.8,89.1 31.4,78 25.3,87.2 14.6,84.3 21.5,92.9 15.4,102.1 25.8,98.2 32.7,106.9 
					32.1,95.9 				"/>
			</defs>
			<use xlink:href="#SVGID_84_"  style="overflow:visible;fill:#F5A11A;"/>
			<clipPath id="SVGID_8_">
				<use xlink:href="#SVGID_84_"  style="overflow:visible;"/>
			</clipPath>
		</g>
		<g>
			<defs>
				<polygon id="SVGID_86_" points="60.2,67.4 50.9,61.4 53.8,50.7 45.2,57.7 35.9,51.7 39.9,62 31.3,69 42.4,68.4 46.3,78.7 
					49.2,68 				"/>
			</defs>
			<use xlink:href="#SVGID_86_"  style="overflow:visible;fill:#F5A11A;"/>
			<clipPath id="SVGID_9_">
				<use xlink:href="#SVGID_86_"  style="overflow:visible;"/>
			</clipPath>
		</g>
	</g>
	<path class="st2" d="M105.4,176L105.4,176c-0.1,0.2-0.3,0.7-0.7,1.4l-22.9-16.6l19.3-10.5L105.4,176z"/>
	<path class="st2" d="M104.8,177.6l-0.1-0.1l-23.1-16.8l19.7-10.7l4.4,26l0,0c-0.1,0.2-0.4,0.8-0.7,1.4L104.8,177.6z M82,160.8
		l22.6,16.4c0.3-0.6,0.5-1,0.6-1.2l-4.4-25.5L82,160.8z"/>
	<g>
		<polygon class="st3" points="81.8,160.7 77.4,147.3 78.2,146 101,150.2 		"/>
		<path class="st3" d="M81.7,161l-4.5-13.7l0.9-1.4l23.4,4.3L81.7,161z M77.5,147.3l4.3,13.2l18.8-10.2l-22.4-4.1L77.5,147.3z"/>
	</g>
	<polygon class="st4" points="78.2,146 79.6,143.8 101.4,128.2 101,150.2 	"/>
	<path class="st4" d="M101.2,150.4l-23.3-4.3l1.6-2.5l22-15.8L101.2,150.4z M78.4,145.9l22.5,4.2l0.3-21.6l-21.5,15.4L78.4,145.9z"
		/>
	<path class="st5" d="M117.6,156.5l-12.1,19.4c0,0,0,0.1-0.1,0.1l-4.4-25.7L117.6,156.5z"/>
	<path class="st5" d="M105.4,176.4l-4.5-26.4l16.9,6.4l-0.1,0.2l-12.1,19.4c0,0,0,0.1-0.1,0.1L105.4,176.4z M101.2,150.5l4.3,25.1
		l11.8-19L101.2,150.5z"/>
	<polygon class="st6" points="118.9,154.3 118.9,154.3 117.6,156.4 101,150.2 113.3,138.5 	"/>
	<path class="st7" d="M117.6,156.6l-0.1,0l-16.8-6.3l0.2-0.2l12.5-11.9l5.7,16.1L117.6,156.6z M101.3,150.2l16.2,6.1l1.2-2
		l-5.5-15.5L101.3,150.2z"/>
	<polygon class="st8" points="101.4,128.2 79.6,143.8 81.2,141.2 92.3,123.4 92.3,123.4 	"/>
	<path class="st8" d="M79.1,144.3l13.1-21.2l0.1,0.1l9.3,4.9L79.1,144.3z M92.3,123.6l-12.2,19.7l21-15L92.3,123.6z"/>
	<polygon class="st9" points="101.4,128.2 113.3,138.5 101,150.2 	"/>
	<path class="st9" d="M100.9,150.6l0.4-22.7l12.3,10.7l-0.1,0.1L100.9,150.6z M101.5,128.5l-0.3,21.4l11.9-11.4L101.5,128.5z"/>
	<polygon class="st7" points="127.1,141.1 118.9,154.3 113.3,138.5 127.1,141.1 	"/>
	<path class="st7" d="M118.9,154.7l-5.8-16.3l14.1,2.6l0.1,0.1l0,0.1L118.9,154.7z M113.6,138.7l5.4,15.3l8-12.8L113.6,138.7z"/>
	<polygon class="st10" points="113.3,138.5 101.4,128.2 123,105 135.3,120.8 	"/>
	<path class="st10" d="M113.3,138.7l-12.2-10.5l0.1-0.1l21.7-23.2l12.5,16l-0.1,0.1L113.3,138.7z M101.6,128.2l11.8,10.2l21.7-17.6
		L123,105.3L101.6,128.2z"/>
	<polygon class="st11" points="113.3,138.5 127.1,141.1 132.2,133 135.3,120.8 	"/>
	<path class="st11" d="M127.2,141.3l-14.2-2.7l22.5-18.2l-3.2,12.7L127.2,141.3z M113.7,138.4l13.4,2.5l5-8l3-11.8L113.7,138.4z"/>
	<polygon class="st10" points="135.3,120.8 138.2,143.1 132.2,133 	"/>
	<path class="st10" d="M138.4,143.7L132,133l0-0.1l3.3-13L138.4,143.7z M132.3,133l5.6,9.4l-2.7-20.8L132.3,133z"/>
	<polygon class="st12" points="135.3,120.8 139.8,102.3 123,105 	"/>
	<path class="st12" d="M135.3,121.1l-12.6-16.2l17.3-2.8L135.3,121.1z M123.2,105.2l12,15.3l4.4-18L123.2,105.2z"/>
	<polygon class="st13" points="135.3,120.8 139.8,102.3 155.7,106.3 	"/>
	<path class="st13" d="M135,121.1l4.7-19l16.3,4.2L135,121.1z M139.9,102.5l-4.4,18l19.8-14L139.9,102.5z"/>
	<polygon class="st14" points="155.7,106.3 159.7,132.1 135.3,120.8 	"/>
	<path class="st14" d="M159.9,132.4L135,120.8l20.8-14.7L159.9,132.4z M135.6,120.8l23.9,11.1l-3.9-25.3L135.6,120.8z"/>
	<polygon class="st10" points="135.3,120.8 138.2,143.1 139.9,143.4 159.7,132.1 	"/>
	<g>
		<path class="st10" d="M139.9,143.5l-1.8-0.3l-2.9-22.6l24.9,11.6L139.9,143.5z M138.3,142.9l1.5,0.3l19.5-11.1L135.5,121
			L138.3,142.9z"/>
	</g>
	<g>
		<g>
			<polygon class="st15" points="138.2,143.1 172.6,149.2 150.8,164.2 			"/>
		</g>
	</g>
	<g>
		<g>
			<path class="st15" d="M150.8,164.4l-0.1-0.1l-12.8-21.4l0.3,0.1l34.8,6.2L150.8,164.4z M138.5,143.3l12.4,20.8l21.3-14.7
				L138.5,143.3z"/>
		</g>
	</g>
	<g>
		<polygon class="st16" points="139.9,143.4 159.7,132.1 172.6,149.2 		"/>
	</g>
	<g>
		<path class="st16" d="M172.9,149.4l-33.5-6l0.4-0.2l19.9-11.3l0.1,0.1L172.9,149.4z M140.3,143.3l32,5.7l-12.6-16.7L140.3,143.3z"
			/>
	</g>
	<polygon class="st17" points="123,105.1 101.4,128.2 98.1,114.1 103.4,105.6 	"/>
	<path class="st17" d="M101.3,128.5l-3.4-14.4l5.4-8.6l20-0.5L101.3,128.5z M98.2,114.1l3.2,13.8l21.2-22.7l-19.2,0.5L98.2,114.1z"
		/>
	<polygon class="st18" points="101.4,128.2 92.3,123.4 97,115.8 98.1,114.1 	"/>
	<path class="st18" d="M101.6,128.5l-9.5-5l6.1-9.7L101.6,128.5z M92.5,123.3l8.7,4.6L98,114.5L92.5,123.3z"/>
	<path class="st19" d="M123,105.1l-19.6,0.5l2.5-4c0,0,1.6-3.6,5.5-5L123,105.1z"/>
	<path class="st20" d="M103.1,105.7l2.6-4.3c0,0,1.7-3.7,5.6-5l0.1,0l0.1,0l11.9,8.7L103.1,105.7z M111.4,96.7
		c-3.8,1.3-5.3,4.8-5.4,4.9l-2.4,3.8l18.9-0.5L111.4,96.7z"/>
	<path class="st20" d="M123,105.1l-11.6-8.5c1-0.3,2.1-0.5,3.3-0.5h5.7L123,105.1z"/>
	<path class="st20" d="M123.2,105.4l-12.1-8.9l0.3-0.1c1-0.4,2.2-0.5,3.4-0.5h5.8l0,0.1L123.2,105.4z M111.7,96.6l11,8.1l-2.4-8.5
		h-5.6C113.7,96.2,112.7,96.3,111.7,96.6z"/>
	<polygon class="st21" points="132.9,96.1 123,105.1 120.4,96.1 	"/>
	<path class="st21" d="M122.9,105.3l-2.7-9.4l13,0L122.9,105.3z M120.6,96.2l2.4,8.6l9.4-8.6L120.6,96.2z"/>
	<polygon class="st22" points="140.9,96.1 139.8,102.3 123,105.1 132.9,96.1 	"/>
	<path class="st22" d="M122.5,105.3l10.3-9.4h8.3l-1.1,6.5L122.5,105.3z M132.9,96.2l-9.5,8.6l16.3-2.7l1-6H132.9z"/>
	<polygon class="st23" points="155.7,106.3 139.8,102.3 140.9,96.1 148.4,96.1 	"/>
	<path class="st23" d="M156,106.6l-16.4-4.2l1.1-6.5l7.8,0L156,106.6z M140,102.2l15.3,3.9l-7-9.9l-7.4,0L140,102.2z"/>
	<path class="st24" d="M158.9,102.2l-3.2,4.2l-7.2-10.3h1.2c6.2,0.1,8.6,5.2,8.6,5.2L158.9,102.2z"/>
	<path class="st24" d="M155.7,106.6l-7.5-10.7h1.5c6.3,0.1,8.7,5.2,8.8,5.2l0.6,1L155.7,106.6z M148.7,96.2l7,9.9l3-3.9l-0.5-0.9
		c0-0.1-2.4-5-8.5-5.1H148.7z"/>
	<polygon class="st25" points="164.3,110.9 155.7,106.3 158.9,102.2 	"/>
	<path class="st25" d="M164.7,111.3l-9.2-4.9l3.5-4.5L164.7,111.3z M155.9,106.3l8,4.3l-5-8.1L155.9,106.3z"/>
	<g>
		<polygon class="st21" points="173.9,126.4 173.9,126.4 159.7,132.1 155.7,106.3 164.3,110.9 		"/>
	</g>
	<g>
		<path class="st21" d="M159.6,132.3l0-0.2l-4-26.1l8.9,4.7l0,0l9.7,15.6l-0.2,0.1L159.6,132.3z M155.9,106.6l3.9,25.3l13.9-5.6
			l-9.5-15.3L155.9,106.6z"/>
	</g>
	<g>
		<g>
			<polygon class="st26" points="172.6,149.2 165.1,166.2 150.9,164.2 150.8,164.2 150.8,164.2 			"/>
		</g>
	</g>
	<g>
		<g>
			<path class="st26" d="M165.2,166.4l-0.1,0l-14.7-2.1l0.3-0.2l22.2-15.3L165.2,166.4z M151.2,164.1l13.8,1.9l7.2-16.5L151.2,164.1
				z"/>
		</g>
	</g>
	<g>
		<polygon class="st27" points="165.1,166.2 155.7,172.3 150.9,164.2 		"/>
	</g>
	<g>
		<path class="st27" d="M155.7,172.6l-5.1-8.5l15,2.1L155.7,172.6z M151.1,164.4l4.6,7.7l9-5.8L151.1,164.4z"/>
	</g>
	<polygon class="st28" points="187.8,173 159.1,178 155.7,172.4 165.1,166.2 	"/>
	<g>
		<path class="st29" d="M159,178.1l-3.5-5.8l9.6-6.3l0.1,0l23.2,7L159,178.1z M155.9,172.4l3.2,5.4l28-4.8l-22-6.6L155.9,172.4z"/>
	</g>
	<g>
		<g>
			<polygon class="st30" points="187.8,173 165.1,166.2 172.6,149.2 			"/>
		</g>
	</g>
	<g>
		<g>
			<path class="st30" d="M188.1,173.3l-23.2-7l7.6-17.4L188.1,173.3z M165.3,166.1l22.1,6.6l-14.8-23.3L165.3,166.1z"/>
		</g>
	</g>
	<polygon class="st31" points="187.8,173 188.7,150.3 172.6,149.2 	"/>
	<g>
		<path class="st31" d="M187.9,173.5L172.3,149l0.3,0l16.3,1.1l0,0.1L187.9,173.5z M172.9,149.4l14.8,23.2l0.9-22.2L172.9,149.4z"/>
	</g>
	<polygon class="st32" points="195.6,139.2 195.6,139.3 195.6,139.3 195.6,139.3 193,152.7 188.5,150.2 188.6,150.1 195.6,139.3 	
		"/>
	<path class="st32" d="M193.1,153l-4.7-2.7l0.2-0.3l7.4-11.5l-0.1,0.8L193.1,153z M188.7,150.2l4.1,2.3l2.5-12.6L188.7,150.2z"/>
	<g>
		<polygon class="st33" points="183.6,142 183.6,142.1 172.6,149.2 179.2,135.1 		"/>
	</g>
	<g>
		<path class="st33" d="M172.2,149.6l6.9-14.8l4.7,7.3l-0.2,0.1L172.2,149.6z M179.2,135.4l-6.2,13.4l10.5-6.8L179.2,135.4z"/>
	</g>
	<g>
		<g>
			<polygon class="st34" points="172.6,149.2 173.9,126.4 159.7,132.1 			"/>
		</g>
	</g>
	<g>
		<g>
			<path class="st34" d="M172.7,149.6l-13.3-17.5l14.6-5.9L172.7,149.6z M159.9,132.2l12.5,16.6l1.3-22.1L159.9,132.2z"/>
		</g>
	</g>
	<g>
		<g>
			<polygon class="st10" points="173.9,126.4 179.2,135.1 172.6,149.2 			"/>
		</g>
	</g>
	<g>
		<g>
			<path class="st10" d="M172.4,150l1.4-24l5.5,9.2L172.4,150z M174,126.9l-1.3,21.5l6.2-13.3L174,126.9z"/>
		</g>
	</g>
	<g>
		<g>
			<polygon class="st31" points="172.6,149.2 188.5,150.2 183.6,142 			"/>
		</g>
	</g>
	<g>
		<g>
			<path class="st31" d="M188.8,150.4l-16.7-1.1l11.6-7.5L188.8,150.4z M173,149.1l15.2,1l-4.7-7.8L173,149.1z"/>
		</g>
	</g>
	<polygon class="st35" points="187.8,173 188.5,150.2 222.6,169.4 	"/>
	<path class="st35" d="M187.6,173.2l0.8-23.2l34.6,19.6l-0.5,0L187.6,173.2z M188.7,150.5l-0.7,22.4l34.1-3.5L188.7,150.5z"/>
	<g>
		<polygon class="st36" points="187.8,173 179.9,188.2 165.2,188.2 165.2,188.1 		"/>
	</g>
	<g>
		<path class="st36" d="M180,188.3h-14.9l-0.1-0.2l0.1-0.1l23.1-15.4L180,188.3z M165.6,188h14.2l7.6-14.6L165.6,188z"/>
	</g>
	<g>
		<polygon class="st29" points="187.8,173 165.2,188.1 159.1,178 		"/>
	</g>
	<g>
		<path class="st29" d="M165.1,188.4l-6.3-10.5l0.2,0l29.4-5.1L165.1,188.4z M159.3,178.1l5.9,9.9l21.9-14.6L159.3,178.1z"/>
	</g>
	<g>
		<polygon class="st37" points="222.6,169.4 225.2,153.6 192.9,152.7 		"/>
	</g>
	<g>
		<path class="st37" d="M222.7,169.7l-0.2-0.1l-30.2-17l33.1,0.9L222.7,169.7z M193.5,152.9l28.9,16.3l2.6-15.5L193.5,152.9z"/>
	</g>
	<polygon class="st38" points="234.8,149.9 222.8,169.2 222.8,169.2 222.6,169.4 225.2,153.6 	"/>
	<g>
		<path class="st38" d="M222.3,169.9l2.8-16.4l0.1,0l9.9-3.9l-12.2,19.6L222.3,169.9z M225.4,153.7l-2.6,15.2l11.6-18.7L225.4,153.7
			z"/>
	</g>
	<g>
		<polygon class="st15" points="242.1,128.9 242.1,138.1 234.8,149.9 225.2,153.6 		"/>
	</g>
	<g>
		<path class="st15" d="M224.9,153.9l17.4-25.5v9.7l-7.4,11.9L224.9,153.9z M241.9,129.4l-16.3,23.9l9-3.5l7.3-11.7V129.4z"/>
	</g>
	<g>
		<polygon class="st39" points="225.2,153.6 193,152.7 195.6,139.3 195.6,139.3 195.6,139.3 195.6,139.2 195.6,139.3 198.6,134.6 		
			"/>
	</g>
	<g>
		<path class="st39" d="M225.7,153.8l-32.9-0.9l2.7-13.7l0.4-0.7l0,0l2.6-4.2l0.1,0.1L225.7,153.8z M193.1,152.6l31.6,0.9
			l-26.2-18.7l-2.9,4.6L193.1,152.6z"/>
	</g>
	<polygon class="st40" points="225.2,153.6 198.6,134.6 200.7,131.2 220.1,120.8 	"/>
	<g>
		<path class="st40" d="M225.4,153.9l-27.1-19.3l2.2-3.5l0,0l19.6-10.4L225.4,153.9z M198.8,134.5l26.3,18.8l-5-32.2l-19.2,10.2
			L198.8,134.5z"/>
	</g>
	<g>
		<polygon class="st41" points="225.2,153.6 220.1,120.8 242.1,128.9 		"/>
	</g>
	<g>
		<path class="st41" d="M225.2,154l-5.2-33.4l0.2,0.1l22.1,8.1l-0.1,0.2L225.2,154z M220.3,121.1l5,32.2l16.5-24.2L220.3,121.1z"/>
	</g>
	<polygon class="st42" points="244.7,133.8 242.1,138.1 242.1,128.9 	"/>
	<path class="st42" d="M241.9,138.6v-10.2l3,5.5L241.9,138.6z M242.2,129.5v8.1l2.3-3.8L242.2,129.5z"/>
	<polygon class="st37" points="246.7,130.5 244.7,133.8 242.1,128.9 	"/>
	<path class="st37" d="M244.7,134.1l-3-5.4l5.2,1.8L244.7,134.1z M242.4,129.2l2.4,4.3l1.8-2.9L242.4,129.2z"/>
	<polygon class="st10" points="251.5,122.9 246.7,130.5 242.1,128.9 	"/>
	<path class="st10" d="M246.8,130.7l-5.1-1.8l10.2-6.6L246.8,130.7z M242.4,128.9l4.3,1.5l4.4-7L242.4,128.9z"/>
	<polygon class="st43" points="242.1,128.9 220.1,120.8 234.8,106.6 	"/>
	<path class="st43" d="M242.3,129.1l-22.4-8.2l14.9-14.6L242.3,129.1z M220.4,120.8l21.4,7.9l-7.2-21.8L220.4,120.8z"/>
	<polygon class="st44" points="220.1,120.8 200.7,131.2 208.5,118.8 	"/>
	<path class="st44" d="M200.3,131.6l8.1-13l12.2,2.2L200.3,131.6z M208.5,118.9l-7.4,11.9l18.6-9.9L208.5,118.9z"/>
	<polygon class="st45" points="220.1,100.2 220.1,120.8 208.5,118.8 208.5,118.8 	"/>
	<path class="st45" d="M220.3,121l-12-2.1v-0.2l0,0l11.9-19V121z M208.7,118.7l11.3,2v-20L208.7,118.7z"/>
	<polygon class="st46" points="234.8,106.6 220.1,120.8 220.1,100.2 222.4,96.5 	"/>
	<path class="st46" d="M220,121.2v-21.1l2.4-3.8l12.6,10.3L220,121.2z M220.3,100.2v20.3l14.2-13.9l-12.1-9.9L220.3,100.2z"/>
	<polygon class="st47" points="258.8,111.1 251.5,122.9 251.5,122.9 242.1,128.9 234.8,106.6 	"/>
	<path class="st47" d="M242,129.1l-7.5-22.7L259,111l-7.4,11.9v0l-0.1,0L242,129.1z M235,106.8l7.2,21.9l9.2-5.9l7.2-11.6L235,106.8
		z"/>
	<g>
		<polygon class="st48" points="261.7,106.5 261.7,106.5 258.8,111.1 234.8,106.6 261.2,85.2 		"/>
	</g>
	<g>
		<path class="st48" d="M258.9,111.3L258.9,111.3l-24.5-4.6l26.9-21.7l0.4,21.6L258.9,111.3z M235.1,106.5l23.6,4.4l2.8-4.5
			l-0.4-20.9L235.1,106.5z M261.7,106.5L261.7,106.5L261.7,106.5L261.7,106.5z"/>
	</g>
	<polygon class="st49" points="267.3,97.3 264.6,101.7 261.7,106.5 261.2,85.2 	"/>
	<path class="st49" d="M261.5,107l-0.5-22.4l6.5,12.7l-2.8,4.5L261.5,107z M261.4,85.9l0.4,20.1l2.7-4.4l2.7-4.4L261.4,85.9z"/>
	<polygon class="st50" points="284.3,70 284.1,70.1 284.1,70.1 284.1,70.1 267.3,97.3 261.1,85.2 	"/>
	<path class="st50" d="M267.3,97.6l-6.4-12.4l23.3-15.3l0.2,0.2l-0.1,0.1L267.3,97.6z M261.3,85.3l6.1,11.7l16.3-26.4L261.3,85.3z"
		/>
	<polygon class="st51" points="261.2,85.2 266.3,63.5 284.3,70 	"/>
	<path class="st51" d="M261,85.6l5.2-22.3l0.2,0.1l18.2,6.6L261,85.6z M266.4,63.7l-5,21.2L283.9,70L266.4,63.7z"/>
	<polygon class="st52" points="284.2,70 298.7,51 298.7,78.6 	"/>
	<path class="st52" d="M298.8,78.8L284,70.1l0.1-0.1l14.7-19.3V78.8z M284.4,70l14.1,8.3V51.5L284.4,70z"/>
	<polygon class="st50" points="266.3,63.5 261.2,85.2 246.1,67 	"/>
	<path class="st51" d="M261.3,85.6l-15.5-18.6l20.7-3.6L261.3,85.6z M246.4,67.1l14.8,17.8l5-21.2L246.4,67.1z"/>
	<polygon class="st50" points="246.1,67 230.6,83.5 241.1,66.8 	"/>
	<path class="st50" d="M230.7,83.6l-0.2-0.2L241,66.7l5.4,0.2L230.7,83.6z M241.2,67l-9.6,15.4l14.3-15.2L241.2,67z"/>
	<polygon class="st53" points="244.6,61.3 242.3,64.8 241.1,66.8 246.1,67 	"/>
	<path class="st53" d="M246.3,67.2l-5.5-0.2l3.8-6L246.3,67.2z M241.3,66.7l4.6,0.2l-1.4-5.2L241.3,66.7z"/>
	<polygon class="st54" points="246.1,67 266.3,63.5 268.2,46.5 	"/>
	<path class="st54" d="M245.6,67.3l22.8-21.1l-1.9,17.5l-0.1,0L245.6,67.3z M268,46.9l-21.5,19.9l19.7-3.4L268,46.9z"/>
	<polygon class="st55" points="268.2,46.5 246.1,67 251.6,50.1 251.6,50 251.6,50 	"/>
	<path class="st55" d="M245.8,67.5l5.7-17.6l0.1,0l17.1-3.6L245.8,67.5z M251.7,50.1L251.7,50.1l-5.3,16.4l21.3-19.7L251.7,50.1z"/>
	<polygon class="st51" points="251.6,50.1 246.1,67 244.6,61.3 	"/>
	<path class="st51" d="M246.1,67.5l-1.7-6.3l0-0.1l7.6-12.2L246.1,67.5z M244.7,61.3l1.4,5.2l5-15.3L244.7,61.3z"/>
	<g>
		<polygon class="st56" points="268.2,46.5 251.6,50 238,41.4 240.1,40.5 		"/>
		<path class="st56" d="M251.6,50.2L251.6,50.2l-13.8-8.8l2.3-1.1l28.9,6.2L251.6,50.2z M238.4,41.4l13.3,8.4l15.9-3.3l-27.4-5.9
			L238.4,41.4z"/>
	</g>
	<polygon class="st57" points="271.9,30.6 268.2,46.5 240.1,40.5 255.4,33.1 255.4,33.1 	"/>
	<path class="st57" d="M268.3,46.7l-0.1,0l-28.6-6.2l15.8-7.6l16.7-2.5L268.3,46.7z M240.5,40.4l27.6,6l3.6-15.6l-16.2,2.4
		L240.5,40.4z"/>
	<polygon class="st58" points="268.2,46.5 266.3,63.5 284.2,70 	"/>
	<path class="st58" d="M284.6,70.3l-18.4-6.7l1.9-17.5L284.6,70.3z M266.5,63.4l17.4,6.3L268.3,47L266.5,63.4z"/>
	<polygon class="st57" points="268.2,46.5 298.7,51 284.2,70 	"/>
	<path class="st57" d="M284.2,70.3l-16.3-23.9l31.1,4.6l-0.1,0.2L284.2,70.3z M268.5,46.7l15.7,23.1l14.2-18.6L268.5,46.7z"/>
	<polygon class="st59" points="268.2,46.5 271.9,30.6 298.7,51 	"/>
	<path class="st59" d="M299.2,51.3L268,46.7l3.8-16.3L299.2,51.3z M268.4,46.4l29.8,4.4L272,30.9L268.4,46.4z"/>
	<polygon class="st56" points="271.9,30.6 255.4,33.1 269.2,26.5 	"/>
	<path class="st56" d="M254.5,33.4l14.7-7.1l2.9,4.4L254.5,33.4z M269.1,26.7l-12.7,6.1l15.3-2.3L269.1,26.7z"/>
	<polygon class="st57" points="283.7,19.5 271.9,30.6 269.2,26.5 	"/>
	<path class="st57" d="M271.9,30.9l-2.9-4.4l15.6-7.5L271.9,30.9z M269.4,26.6l2.6,3.8l11-10.3L269.4,26.6z"/>
	<polygon class="st60" points="298.7,51 271.9,30.6 283.7,19.5 283.8,19.5 290.6,16.3 	"/>
	<path class="st60" d="M298.9,51.4l-0.3-0.2l-26.9-20.5l12-11.2h0l6.9-3.3L298.9,51.4z M272.1,30.6l26.3,20.1l-8-34.2l-6.6,3.2
		L272.1,30.6z"/>
	<polygon class="st61" points="298.7,12.4 298.7,50.7 298.7,51 290.6,16.3 	"/>
	<path class="st61" d="M298.8,52l-8.4-35.8l8.5-4.1v38.6L298.8,52z M290.7,16.4l7.8,33.5l0-37.3L290.7,16.4z"/>
	<polygon class="st62" points="81.7,160.8 77.4,147.3 77.4,147.3 67.4,163.3 67.4,163.3 	"/>
	<path class="st62" d="M67.1,163.5L77.5,147l0.1,0.3l4.4,13.6L67.1,163.5z M77.4,147.6l-9.7,15.4l13.9-2.4L77.4,147.6z"/>
	<polygon class="st63" points="81.8,160.7 67.4,163.3 67.4,163.3 60.8,173.9 60.9,173.9 	"/>
	<path class="st63" d="M60.3,174.4l7-11.3l0.1,0l15.1-2.7L60.9,174L60.3,174.4z M67.5,163.5l-6.2,10L81,161L67.5,163.5z"/>
	<g>
		<polygon class="st38" points="187.8,173 202.4,187.9 179.9,188.2 		"/>
		<path class="st38" d="M179.7,188.3l8.1-15.5l15,15.2L179.7,188.3z M187.8,173.3l-7.7,14.7l21.9-0.3L187.8,173.3z"/>
	</g>
	<path class="st40" d="M222.6,169.5L222.6,169.5L222.6,169.5l-0.1,0.1l-5,8.1c-3.4,5.4-8.9,9.1-15.1,10.2L187.8,173L222.6,169.5
		L222.6,169.5z"/>
	<path class="st40" d="M202.4,188L202.4,188l-14.9-15.1l35.2-3.6l0.1,0.2l-0.1,0.2l-5,8.1C214.3,183.2,208.7,186.9,202.4,188
		L202.4,188z M188.1,173.1l14.4,14.6c6.2-1.1,11.6-4.7,14.9-10.1l5-8L188.1,173.1z"/>
	<g>
		<polygon class="st48" points="222.4,96.5 230.6,83.5 234.8,106.6 		"/>
	</g>
	<g>
		<path class="st48" d="M235,107l-12.7-10.4l8.4-13.4L235,107z M222.6,96.5l11.9,9.8l-4-22.3L222.6,96.5z"/>
	</g>
	<g>
		<path class="st64" d="M234.8,106.6"/>
	</g>
	<polygon class="st65" points="234.8,106.6 261.2,85.2 230.6,83.5 	"/>
	<g>
		<path class="st65" d="M234.7,106.9l-4.2-23.5l31.2,1.8L234.7,106.9z M230.8,83.7l4.1,22.7l26-21L230.8,83.7z"/>
	</g>
	<polygon class="st66" points="230.6,83.5 246.1,67 261.2,85.2 	"/>
	<path class="st66" d="M261.5,85.4l-31.3-1.8l15.8-16.8L261.5,85.4z M230.9,83.4l30,1.7l-14.8-17.8L230.9,83.4z"/>
	<polygon class="st67" points="81.8,160.7 60.9,173.9 51.9,188.2 75.8,188.2 	"/>
	<path class="st67" d="M51.7,188.3l9.1-14.6L82,160.4l-0.1,0.3l-6,27.6L51.7,188.3z M61,174L52.2,188l23.5,0l5.9-27L61,174z"/>
	<polygon class="st68" points="81.9,160.7 75.9,188.2 89.9,188.1 	"/>
	<path class="st68" d="M75.7,188.3l0-0.2l6.1-28l8.2,28L75.7,188.3z M81.9,161.3L76.1,188l13.6-0.1L81.9,161.3z"/>
	<path class="st69" d="M81.8,160.7l22.9,16.6c0,0-4.3,9.6-14.9,10.7L81.8,160.7z"/>
	<path class="st69" d="M89.7,188.2l-8.2-27.8l23.4,17l0,0.1c0,0.1-4.5,9.7-15.1,10.8L89.7,188.2z M82,161.1l7.9,26.8
		c9.7-1,14.1-9.4,14.6-10.5L82,161.1z"/>
</g>
</svg>
