<?xml version="1.0" encoding="utf-8"?>
<!-- Generator: Adobe Illustrator 24.2.3, SVG Export Plug-In . SVG Version: 6.00 Build 0)  -->
<svg version="1.1" id="money_2_" xmlns="http://www.w3.org/2000/svg" xmlns:xlink="http://www.w3.org/1999/xlink" x="0px" y="0px"
	 viewBox="0 0 77.8 77.8" style="enable-background:new 0 0 77.8 77.8;" xml:space="preserve">
<style type="text/css">
	.st0{fill:url(#Path_2216_1_);}
	.st1{fill:url(#Path_2217_1_);}
	.st2{fill:url(#Path_2218_1_);}
</style>
<linearGradient id="Path_2216_1_" gradientUnits="userSpaceOnUse" x1="30.8471" y1="52.2994" x2="50.2588" y2="32.5347">
	<stop  offset="0" style="stop-color:#800F34"/>
	<stop  offset="0.1549" style="stop-color:#CB3E43"/>
	<stop  offset="0.2997" style="stop-color:#DE1D47"/>
	<stop  offset="0.4665" style="stop-color:#C43C3A"/>
	<stop  offset="0.6285" style="stop-color:#E23833"/>
	<stop  offset="0.828" style="stop-color:#FF7814"/>
	<stop  offset="1" style="stop-color:#F8C320"/>
</linearGradient>
<path id="Path_2216" class="st0" d="M38.9,57.1c7.2,0,13-5.8,13-13s-5.8-13-13-13s-13,5.8-13,13l0,0C25.9,51.3,31.7,57.1,38.9,57.1z
	 M38.9,33.7c5.7,0,10.4,4.6,10.4,10.4s-4.6,10.4-10.4,10.4c-5.7,0-10.4-4.6-10.4-10.4C28.5,38.4,33.2,33.7,38.9,33.7L38.9,33.7
	L38.9,33.7z"/>
<linearGradient id="Path_2217_1_" gradientUnits="userSpaceOnUse" x1="-60.7538" y1="-47.9148" x2="90.2462" y2="79.0852" gradientTransform="matrix(1 0 0 -1 0 80)">
	<stop  offset="0" style="stop-color:#800F34"/>
	<stop  offset="0.1549" style="stop-color:#CB3E43"/>
	<stop  offset="0.2997" style="stop-color:#DE1D47"/>
	<stop  offset="0.4665" style="stop-color:#C43C3A"/>
	<stop  offset="0.6285" style="stop-color:#E23833"/>
	<stop  offset="0.828" style="stop-color:#FF7814"/>
	<stop  offset="1" style="stop-color:#F8C320"/>
</linearGradient>
<path id="Path_2217" class="st1" d="M38.9,48c-0.7,0-1.3-0.6-1.3-1.3s-0.7-1.3-1.4-1.2c-0.6,0-1.2,0.6-1.2,1.2c0,1.6,1,3.1,2.6,3.7
	v1.5c0,0.7,0.7,1.3,1.4,1.2c0.6,0,1.2-0.6,1.2-1.2v-1.5c2-0.7,3.1-2.9,2.4-5c-0.5-1.6-2-2.6-3.7-2.6c-0.7,0-1.3-0.6-1.3-1.3
	s0.6-1.3,1.3-1.3s1.3,0.6,1.3,1.3l0,0c0,0.7,0.5,1.3,1.2,1.4c0.7,0,1.3-0.5,1.4-1.2c0-0.1,0-0.1,0-0.2c0-1.6-1-3.1-2.6-3.7v-1.5
	c0-0.7-0.7-1.3-1.4-1.2c-0.6,0-1.2,0.6-1.2,1.2v1.5c-2,0.7-3.1,2.9-2.4,5c0.5,1.6,2,2.6,3.7,2.6c0.7,0,1.3,0.5,1.4,1.2
	c0,0.7-0.5,1.3-1.2,1.4C39,48,39,48,38.9,48L38.9,48z"/>
<linearGradient id="Path_2218_1_" gradientUnits="userSpaceOnUse" x1="16.3323" y1="88.4202" x2="63.4499" y2="22.0673">
	<stop  offset="0" style="stop-color:#800F34"/>
	<stop  offset="0.1549" style="stop-color:#CB3E43"/>
	<stop  offset="0.2997" style="stop-color:#DE1D47"/>
	<stop  offset="0.4665" style="stop-color:#C43C3A"/>
	<stop  offset="0.6285" style="stop-color:#E23833"/>
	<stop  offset="0.828" style="stop-color:#FF7814"/>
	<stop  offset="1" style="stop-color:#F8C320"/>
</linearGradient>
<path id="Path_2218" class="st2" d="M74.2,44.1h-8.4c-2-6.4-5.7-12.2-10.8-16.6l-7.2-6.3c1.7-1.3,1.9-3.8,0.6-5.4
	c-0.5-0.6-1.2-1.1-2-1.3L53,4.6c0.3-0.5,0.3-1.1-0.1-1.6l-0.1-0.1l0,0c-2-1.9-4.6-2.9-7.4-3c-2.2,0-4.3,0.7-6.1,1.9
	c-4-1.8-8.2-3.5-14.2,1c-0.5,0.4-0.7,1.2-0.3,1.8l6.5,9.8c-2.1,0.5-3.3,2.6-2.7,4.7c0.1,0.5,0.4,1,0.7,1.5l-6.1,5.7l1.8,1.9l6.6-6.2
	h13.3l8.4,7.4c4.5,3.9,7.9,9,9.8,14.7h-5c-2,0-3.6,1.6-3.6,3.6v3.2c0,0.8,0.3,1.7,0.9,2.3c-0.6,0.6-0.9,1.5-0.9,2.3v3.2
	c0,0.4,0.1,0.8,0.2,1.1c-1.6,0.4-2.8,1.8-2.8,3.5v3.2c0,1.7,1.2,3.1,2.8,3.5c-0.1,0.4-0.2,0.7-0.2,1.1v3.2c0,0.2,0,0.3,0,0.5
	c-1.3,0.4-2.6,0.6-3.9,0.6h-0.2c0.1-0.3,0.2-0.7,0.2-1V71c0-0.8-0.3-1.7-0.9-2.3c0.6-0.6,0.9-1.5,0.9-2.3v-3.2c0-2-1.6-3.6-3.6-3.6
	H30.8c-2,0-3.6,1.6-3.6,3.6v3.2c0,0.8,0.3,1.7,0.9,2.3c-0.6,0.6-0.9,1.5-0.9,2.3v3.2c0,0.3,0.1,0.7,0.2,1h-0.2
	c-1.3,0-2.7-0.2-3.9-0.6c0-0.2,0-0.3,0-0.5V71c0-0.4-0.1-0.8-0.2-1.1c1.6-0.4,2.8-1.8,2.8-3.5v-3.2c0-1.7-1.2-3.1-2.8-3.5
	c0.1-0.4,0.2-0.7,0.2-1.1v-3.2c0-0.8-0.3-1.7-0.9-2.3c0.6-0.6,0.9-1.5,0.9-2.3v-3.2c0-2-1.6-3.6-3.6-3.6h-5.2
	c1.6-5.3,4.5-10,8.4-13.9l-1.8-1.8c-4.4,4.4-7.6,9.8-9.3,15.8H3.6c-2,0-3.6,1.6-3.6,3.6v3.2c0,0.8,0.3,1.7,0.9,2.3
	C0.3,53.8,0,54.6,0,55.5v3.2c0,1.7,1.2,3.1,2.8,3.5c-0.1,0.4-0.2,0.7-0.2,1.1v3.2c0,0.4,0.1,0.8,0.2,1.1C1.2,67.9,0,69.4,0,71v3.2
	c0,2,1.6,3.6,3.6,3.6h16.1c0.8,0,1.6-0.3,2.3-0.8c1.7,0.6,3.4,0.8,5.2,0.8h23.3c1.8,0,3.5-0.3,5.2-0.8c0.6,0.5,1.4,0.8,2.3,0.8h16.1
	c2,0,3.6-1.6,3.6-3.6V71c0-1.7-1.2-3.1-2.8-3.5c0.1-0.4,0.2-0.7,0.2-1.1v-3.2c0-0.4-0.1-0.8-0.2-1.1c1.6-0.4,2.8-1.8,2.8-3.5v-3.2
	c0-0.8-0.3-1.7-0.9-2.3c0.6-0.6,0.9-1.5,0.9-2.3v-3.2C77.8,45.7,76.2,44.1,74.2,44.1z M49.1,3.5c-2.2,0.6-4.5,0.4-6.6-0.3
	c0.9-0.4,1.9-0.6,2.9-0.6C46.7,2.6,47.9,2.9,49.1,3.5L49.1,3.5z M38.4,4.3c2.9,1.3,6.1,2.7,10.4,1.9l-5.4,8h-9l-6.7-10
	C32,1.5,34.8,2.8,38.4,4.3L38.4,4.3z M32.4,19.5c-0.7,0-1.3-0.7-1.2-1.4c0-0.6,0.6-1.2,1.2-1.2h13c0.7,0,1.3,0.7,1.2,1.4
	c0,0.6-0.6,1.2-1.2,1.2H32.4z M23.3,66.4c0,0.6-0.5,1-1,1H6.2c-0.6,0-1-0.5-1-1v-3.2c0-0.6,0.5-1,1-1h1.6v2.6h2.6v-2.6H13v2.6h2.6
	v-2.6h2.6v2.6h2.6v-2.6h1.6c0.6,0,1,0.5,1,1L23.3,66.4z M2.6,47.7c0-0.6,0.5-1,1-1h1.6v2.6h2.6v-2.6h2.6v2.6H13v-2.6h2.6v2.6h2.6
	v-2.6h1.6c0.6,0,1,0.5,1,1v3.2c0,0.6-0.5,1-1,1H3.6c-0.6,0-1-0.5-1-1V47.7z M2.6,55.5c0-0.6,0.5-1,1-1h1.6v2.6h2.6v-2.6h2.6v2.6H13
	v-2.6h2.6v2.6h2.6v-2.6h1.6c0.6,0,1,0.5,1,1v3.2c0,0.6-0.5,1-1,1H3.6c-0.6,0-1-0.5-1-1V55.5z M20.8,74.2c0,0.6-0.5,1-1,1H3.6
	c-0.6,0-1-0.5-1-1V71c0-0.6,0.5-1,1-1h1.6v2.6h2.6V70h2.6v2.6H13V70h2.6v2.6h2.6V70h1.6c0.6,0,1,0.5,1,1L20.8,74.2z M29.8,63.3
	c0-0.6,0.5-1,1-1h1.6v2.6H35v-2.6h2.6v2.6h2.6v-2.6h2.6v2.6h2.6v-2.6H47c0.6,0,1,0.5,1,1v3.2c0,0.6-0.5,1-1,1H30.8c-0.6,0-1-0.5-1-1
	V63.3z M30.8,75.2c-0.6,0-1-0.5-1-1V71c0-0.6,0.5-1,1-1h1.6v2.6H35V70h2.6v2.6h2.6V70h2.6v2.6h2.6V70H47c0.6,0,1,0.5,1,1v3.2
	c0,0.6-0.5,1-1,1H30.8z M57.1,47.7c0-0.6,0.5-1,1-1h1.6v2.6h2.6v-2.6h2.6v2.6h2.6v-2.6H70v2.6h2.6v-2.6h1.6c0.6,0,1,0.5,1,1v3.2
	c0,0.6-0.5,1-1,1H58.1c-0.6,0-1-0.5-1-1V47.7z M54.5,63.3c0-0.6,0.5-1,1-1h1.6v2.6h2.6v-2.6h2.6v2.6h2.6v-2.6h2.6v2.6H70v-2.6h1.6
	c0.6,0,1,0.5,1,1v3.2c0,0.6-0.5,1-1,1H55.5c-0.6,0-1-0.5-1-1V63.3z M75.2,74.2c0,0.6-0.5,1-1,1H58.1c-0.6,0-1-0.5-1-1V71
	c0-0.6,0.5-1,1-1h1.6v2.6h2.6V70h2.6v2.6h2.6V70H70v2.6h2.6V70h1.6c0.6,0,1,0.5,1,1V74.2z M75.2,58.6c0,0.6-0.5,1-1,1H58.1
	c-0.6,0-1-0.5-1-1v-3.2c0-0.6,0.5-1,1-1h1.6V57h2.6v-2.6h2.6V57h2.6v-2.6H70V57h2.6v-2.6h1.6c0.6,0,1,0.5,1,1V58.6z"/>
</svg>
