<?xml version="1.0" encoding="utf-8"?>
<!-- Generator: Adobe Illustrator 24.2.3, SVG Export Plug-In . SVG Version: 6.00 Build 0)  -->
<svg version="1.1" id="really" xmlns="http://www.w3.org/2000/svg" xmlns:xlink="http://www.w3.org/1999/xlink" x="0px" y="0px"
	 viewBox="0 0 83 83" style="enable-background:new 0 0 83 83;" xml:space="preserve">
<style type="text/css">
	.st0{fill:url(#Path_2219_1_);}
	.st1{fill:url(#Path_2220_1_);}
</style>
<linearGradient id="Path_2219_1_" gradientUnits="userSpaceOnUse" x1="9.2001" y1="85.9582" x2="78.3766" y2="20.5464">
	<stop  offset="0" style="stop-color:#800F34"/>
	<stop  offset="0.1549" style="stop-color:#CB3E43"/>
	<stop  offset="0.2997" style="stop-color:#DE1D47"/>
	<stop  offset="0.4665" style="stop-color:#C43C3A"/>
	<stop  offset="0.6285" style="stop-color:#E23833"/>
	<stop  offset="0.828" style="stop-color:#FF7814"/>
	<stop  offset="1" style="stop-color:#F8C320"/>
</linearGradient>
<path id="Path_2219" class="st0" d="M53.2,38.9c8.6,0,15.6-7,15.6-15.6s-7-15.6-15.6-15.6s-15.6,7-15.6,15.6
	C37.6,31.9,44.6,38.9,53.2,38.9L53.2,38.9z M53.2,10.4c7.2,0,13,5.8,13,13s-5.8,13-13,13s-13-5.8-13-13l0,0
	C40.2,16.2,46,10.4,53.2,10.4L53.2,10.4z M77.7,61.9c-0.2-0.5-0.6-0.8-1-0.9l-2.9-0.4l-1.3-2.8c-0.3-0.6-1.1-0.9-1.7-0.6
	c-0.3,0.1-0.5,0.3-0.6,0.6l-1.3,2.8l-3,0.4c-0.7,0.1-1.2,0.8-1.1,1.5c0,0.3,0.2,0.5,0.4,0.7l2.1,2.2l-0.5,3.1
	c-0.1,0.7,0.4,1.4,1.1,1.5c0.3,0,0.6,0,0.8-0.1l2.6-1.4l2.6,1.4c0.4,0.2,1,0.2,1.4-0.1c0.4-0.3,0.6-0.8,0.5-1.3l-0.5-3.1l2.1-2.2
	C77.8,62.9,77.9,62.4,77.7,61.9L77.7,61.9z M73,64.1c-0.3,0.3-0.4,0.7-0.4,1.1l0.2,1.1L72,65.8c-0.4-0.2-0.9-0.2-1.3,0l-0.9,0.5
	l0.2-1.1c0.1-0.4-0.1-0.8-0.4-1.1l-0.8-0.9l1.1-0.2c0.4-0.1,0.8-0.3,1-0.7l0.4-0.9l0.4,0.9c0.2,0.4,0.6,0.7,1,0.7l1.1,0.2L73,64.1z
	 M36.3,64.6v-0.7c0-0.7-0.2-1.4-0.5-2c1.5-0.7,2.4-2.2,2.4-3.8v-0.7c0-1.6-1-3.1-2.4-3.8c0.3-0.6,0.5-1.3,0.5-2v-0.8
	c0-2.3-1.9-4.2-4.2-4.2h-5.9c-0.6-1-0.4-3.2,0.2-4.8c0.5-1.5,0.7-3.1,0.6-4.7c-0.2-3.4-2-5.8-4.7-6.5c-1.9-0.4-3.3-0.3-4.1,0.5
	c-1,0.8-0.9,2.1-0.8,3.3c0.2,1.9,0.3,3.8-0.6,5.3c-1.2,2-2.9,3.1-4.8,4.4c-0.6,0.4-1.2,0.8-1.9,1.3c-0.5,0.4-1,0.8-1.5,1.2H3.3
	C1.5,46.6,0,48,0,49.9V68c0,1.8,1.5,3.3,3.3,3.3h6.8c1.4,1.7,3.8,3.4,7.9,3.4c0.2,0,0.4,0,0.6,0c-0.5-0.8-0.8-1.7-1-2.6
	c-5.4-0.2-6.6-4-6.7-4.8v-3.6c0-0.7-0.5-1.3-1.3-1.3c-0.7,0-1.3,0.5-1.3,1.3c0,0,0,0,0,0.1v3.8c0,0.1,0,0.1,0,0.2
	c0.1,0.3,0.2,0.7,0.3,1H3.3c-0.4,0-0.7-0.3-0.7-0.7V49.9c0-0.4,0.3-0.7,0.7-0.7h4.8v5.1c0,0.7,0.6,1.3,1.3,1.3s1.2-0.6,1.3-1.3v-5.9
	c0.3-0.3,2.3-1.7,2.9-2.1c2.1-1.4,4.1-2.8,5.6-5.2c1.3-2.2,1.1-4.7,0.9-6.8c0-0.3-0.1-1.1-0.1-1.1c0.6-0.1,1.2-0.1,1.8,0.1
	c2.3,0.5,2.6,3.3,2.7,4.1c0.1,1.3-0.1,2.5-0.5,3.7c-0.6,1.8-0.8,3.7-0.5,5.6h-1.2c-2.3,0-4.2,1.9-4.2,4.2v0.7c0,0.7,0.2,1.4,0.5,2
	c-1.5,0.7-2.4,2.2-2.4,3.8v0.7c0,1.6,1,3.1,2.4,3.8c-0.3,0.6-0.5,1.3-0.5,2v0.7c0,1.6,1,3.1,2.4,3.8c-0.3,0.6-0.5,1.3-0.5,2v0.7
	c0,2.3,1.9,4.2,4.2,4.2h5.9c2.3,0,4.2-1.9,4.2-4.2v-0.7c0-0.7-0.2-1.4-0.5-2C35.4,67.7,36.3,66.2,36.3,64.6L36.3,64.6z M33.7,63.8
	v0.7c0,0.9-0.7,1.6-1.6,1.6h-9.8c-0.9,0-1.6-0.7-1.6-1.6v-0.7c0-0.9,0.7-1.6,1.6-1.6h9.8C33,62.3,33.7,63,33.7,63.8z M22.3,55.8
	h11.8c0.9,0,1.6,0.7,1.6,1.6v0.7c0,0.9-0.7,1.6-1.6,1.6H20.4c-0.9,0-1.6-0.7-1.6-1.6v-0.7c0-0.9,0.7-1.6,1.6-1.6H22.3z M20.8,50.8
	c0-0.9,0.7-1.6,1.6-1.6h9.8c0.9,0,1.6,0.7,1.6,1.6v0.7c0,0.9-0.7,1.6-1.6,1.6h-9.8c-0.9,0-1.6-0.7-1.6-1.6L20.8,50.8z M31.8,71.1
	c0,0.9-0.7,1.6-1.6,1.6h-5.9c-0.9,0-1.6-0.7-1.6-1.6v-0.7c0-0.9,0.7-1.6,1.6-1.6h5.9c0.9,0,1.6,0.7,1.6,1.6V71.1z M49.5,41.1
	l-3,15.3c-0.1,0.5,0.1,0.9,0.4,1.2l5.3,4.6c0.5,0.4,1.2,0.4,1.7,0l5.3-4.4c0.4-0.3,0.5-0.8,0.4-1.2L57,41.1
	c-0.8,0.2-1.7,0.3-2.6,0.4l2.7,14.8l-3.9,3.3l-3.9-3.4l2.8-14.7C51.2,41.4,50.4,41.3,49.5,41.1z"/>
<linearGradient id="Path_2220_1_" gradientUnits="userSpaceOnUse" x1="35.8654" y1="77.5109" x2="83.336" y2="30.2168">
	<stop  offset="0" style="stop-color:#800F34"/>
	<stop  offset="0.1549" style="stop-color:#CB3E43"/>
	<stop  offset="0.2997" style="stop-color:#DE1D47"/>
	<stop  offset="0.4665" style="stop-color:#C43C3A"/>
	<stop  offset="0.6285" style="stop-color:#E23833"/>
	<stop  offset="0.828" style="stop-color:#FF7814"/>
	<stop  offset="1" style="stop-color:#F8C320"/>
</linearGradient>
<path id="Path_2220" class="st1" d="M42,38.9h1.8c-1.2-0.7-2.3-1.6-3.3-2.5C36.1,36.8,32,38.8,29,42c-0.1,0.2-0.1,0.5-0.2,0.7
	c-0.2,0.7-0.4,1.5-0.4,2.2c0.4,0.1,0.8,0.3,1.1,0.6C32.4,41.4,37.1,38.9,42,38.9z M65.9,36.3c-1,1-2.1,1.9-3.3,2.6h3.1
	c8.1,0,14.7,6.5,14.8,14.6v17.8c0,0.7-0.6,1.3-1.3,1.3H36.8c-0.2,0.9-0.7,1.8-1.3,2.6h43.6c2.1,0,3.9-1.7,3.9-3.9V53.5
	C82.9,44.1,75.3,36.4,65.9,36.3z"/>
</svg>
