<?xml version="1.0" encoding="utf-8"?>
<!-- Generator: Adobe Illustrator 24.2.3, SVG Export Plug-In . SVG Version: 6.00 Build 0)  -->
<svg version="1.1" id="Layer_1" xmlns="http://www.w3.org/2000/svg" xmlns:xlink="http://www.w3.org/1999/xlink" x="0px" y="0px"
	 viewBox="0 0 74.8 74.8" style="enable-background:new 0 0 74.8 74.8;" xml:space="preserve">
<style type="text/css">
	.st0{fill:url(#graph_1_);}
</style>
<linearGradient id="graph_1_" gradientUnits="userSpaceOnUse" x1="1.892" y1="72.8515" x2="66.1273" y2="8.9691">
	<stop  offset="0" style="stop-color:#800F34"/>
	<stop  offset="0.1549" style="stop-color:#CB3E43"/>
	<stop  offset="0.2997" style="stop-color:#DE1D47"/>
	<stop  offset="0.4665" style="stop-color:#C43C3A"/>
	<stop  offset="0.6285" style="stop-color:#E23833"/>
	<stop  offset="0.828" style="stop-color:#FF7814"/>
	<stop  offset="1" style="stop-color:#F8C320"/>
</linearGradient>
<path id="graph" class="st0" d="M5.2,0C4.5,0,4,0.6,4,1.3l0,0v67.1H1.4c-0.7,0-1.3,0.5-1.3,1.2l0,0v0.1c0,0.7,0.6,1.3,1.3,1.3l0,0H4
	v2.6c0,0.7,0.5,1.3,1.2,1.3l0,0h0.1c0.7,0,1.3-0.6,1.2-1.3l0,0V71h67.1c0.7,0,1.3-0.5,1.3-1.2l0,0v-0.1c0-0.7-0.6-1.3-1.3-1.2l0,0
	h-67V1.3C6.6,0.6,6,0,5.2,0C5.3,0,5.3,0,5.2,0L5.2,0z M47.8,11.6l-6.5,7.7h2.6V67h7.7V19.4h2.6L47.8,11.6z M16.9,27.1l-6.5,7.7H13
	v32.3h7.7V34.8h2.6L16.9,27.1z M32.4,38.8l-6.5,7.7h2.6v20.6h7.7V46.5h2.6L32.4,38.8z M63.3,45.3L56.8,53h2.6v14.2h7.7V53h2.6
	L63.3,45.3z"/>
</svg>
